<mxfile host="app.diagrams.net" modified="2023-06-05T09:05:21.117Z" agent="Mozilla/5.0 (Macintosh; Intel Mac OS X 10_15_7) AppleWebKit/537.36 (KHTML, like Gecko) Chrome/113.0.0.0 Safari/537.36" etag="0Tb2wMuzhvo5-Doj3L46" version="21.3.7" type="github" pages="4">
  <diagram name="หน้า-1" id="x-nQ00thNAnxQv6zFr5r">
    <mxGraphModel dx="1914" dy="925" grid="1" gridSize="10" guides="1" tooltips="1" connect="1" arrows="1" fold="1" page="1" pageScale="1" pageWidth="827" pageHeight="1169" math="0" shadow="0">
      <root>
        <mxCell id="0" />
        <mxCell id="1" parent="0" />
        <mxCell id="LruoxbvZ4ObsnGQCZo3e-77" value="เริ่ม" style="ellipse;whiteSpace=wrap;html=1;" vertex="1" parent="1">
          <mxGeometry x="232" y="150" width="80" height="40" as="geometry" />
        </mxCell>
        <mxCell id="LruoxbvZ4ObsnGQCZo3e-78" value="ตรวจสอบสิทธิ์การใช้งาน" style="rounded=1;whiteSpace=wrap;html=1;" vertex="1" parent="1">
          <mxGeometry x="202" y="230" width="140" height="30" as="geometry" />
        </mxCell>
        <mxCell id="LruoxbvZ4ObsnGQCZo3e-79" value="" style="edgeStyle=orthogonalEdgeStyle;rounded=0;orthogonalLoop=1;jettySize=auto;html=1;" edge="1" parent="1" source="LruoxbvZ4ObsnGQCZo3e-77" target="LruoxbvZ4ObsnGQCZo3e-78">
          <mxGeometry relative="1" as="geometry" />
        </mxCell>
        <mxCell id="LruoxbvZ4ObsnGQCZo3e-80" value="มี ?" style="rhombus;whiteSpace=wrap;html=1;" vertex="1" parent="1">
          <mxGeometry x="242" y="290" width="60" height="60" as="geometry" />
        </mxCell>
        <mxCell id="LruoxbvZ4ObsnGQCZo3e-81" value="" style="edgeStyle=orthogonalEdgeStyle;rounded=0;orthogonalLoop=1;jettySize=auto;html=1;" edge="1" parent="1" source="LruoxbvZ4ObsnGQCZo3e-78" target="LruoxbvZ4ObsnGQCZo3e-80">
          <mxGeometry relative="1" as="geometry" />
        </mxCell>
        <mxCell id="LruoxbvZ4ObsnGQCZo3e-82" value="สิ้นสุด" style="ellipse;whiteSpace=wrap;html=1;" vertex="1" parent="1">
          <mxGeometry x="427" y="840" width="80" height="40" as="geometry" />
        </mxCell>
        <mxCell id="LruoxbvZ4ObsnGQCZo3e-83" style="edgeStyle=orthogonalEdgeStyle;rounded=0;orthogonalLoop=1;jettySize=auto;html=1;entryX=0;entryY=0.5;entryDx=0;entryDy=0;" edge="1" parent="1" source="LruoxbvZ4ObsnGQCZo3e-80" target="LruoxbvZ4ObsnGQCZo3e-82">
          <mxGeometry relative="1" as="geometry">
            <Array as="points">
              <mxPoint x="272" y="860" />
            </Array>
          </mxGeometry>
        </mxCell>
        <mxCell id="LruoxbvZ4ObsnGQCZo3e-84" value="ไม่" style="edgeLabel;html=1;align=center;verticalAlign=middle;resizable=0;points=[];" vertex="1" connectable="0" parent="LruoxbvZ4ObsnGQCZo3e-83">
          <mxGeometry x="-0.8925" y="1" relative="1" as="geometry">
            <mxPoint as="offset" />
          </mxGeometry>
        </mxCell>
        <mxCell id="LruoxbvZ4ObsnGQCZo3e-85" value="ตรวจสอบ Account &lt;br&gt;สถานะการใช้งาน" style="rounded=1;whiteSpace=wrap;html=1;" vertex="1" parent="1">
          <mxGeometry x="418.35" y="299" width="170" height="40" as="geometry" />
        </mxCell>
        <mxCell id="LruoxbvZ4ObsnGQCZo3e-86" value="" style="edgeStyle=orthogonalEdgeStyle;rounded=0;orthogonalLoop=1;jettySize=auto;html=1;" edge="1" parent="1" source="LruoxbvZ4ObsnGQCZo3e-80" target="LruoxbvZ4ObsnGQCZo3e-85">
          <mxGeometry relative="1" as="geometry">
            <Array as="points">
              <mxPoint x="382" y="320" />
              <mxPoint x="382" y="320" />
            </Array>
          </mxGeometry>
        </mxCell>
        <mxCell id="LruoxbvZ4ObsnGQCZo3e-87" value="ใช่" style="edgeLabel;html=1;align=center;verticalAlign=middle;resizable=0;points=[];" vertex="1" connectable="0" parent="LruoxbvZ4ObsnGQCZo3e-86">
          <mxGeometry x="-0.7797" y="-1" relative="1" as="geometry">
            <mxPoint as="offset" />
          </mxGeometry>
        </mxCell>
        <mxCell id="LruoxbvZ4ObsnGQCZo3e-88" value="มีใน&lt;br&gt;ระบบ &lt;br&gt;?" style="rhombus;whiteSpace=wrap;html=1;" vertex="1" parent="1">
          <mxGeometry x="465.85" y="378" width="75" height="70" as="geometry" />
        </mxCell>
        <mxCell id="LruoxbvZ4ObsnGQCZo3e-89" value="" style="edgeStyle=orthogonalEdgeStyle;rounded=0;orthogonalLoop=1;jettySize=auto;html=1;" edge="1" parent="1" source="LruoxbvZ4ObsnGQCZo3e-85" target="LruoxbvZ4ObsnGQCZo3e-88">
          <mxGeometry relative="1" as="geometry" />
        </mxCell>
        <mxCell id="LruoxbvZ4ObsnGQCZo3e-90" value="status&lt;br style=&quot;border-color: var(--border-color);&quot;&gt;= 1 ?" style="rhombus;whiteSpace=wrap;html=1;" vertex="1" parent="1">
          <mxGeometry x="473.35" y="498" width="60" height="60" as="geometry" />
        </mxCell>
        <mxCell id="LruoxbvZ4ObsnGQCZo3e-91" value="" style="edgeStyle=orthogonalEdgeStyle;rounded=0;orthogonalLoop=1;jettySize=auto;html=1;" edge="1" parent="1" source="LruoxbvZ4ObsnGQCZo3e-88" target="LruoxbvZ4ObsnGQCZo3e-90">
          <mxGeometry relative="1" as="geometry" />
        </mxCell>
        <mxCell id="LruoxbvZ4ObsnGQCZo3e-92" value="ใช่" style="edgeLabel;html=1;align=center;verticalAlign=middle;resizable=0;points=[];" vertex="1" connectable="0" parent="LruoxbvZ4ObsnGQCZo3e-91">
          <mxGeometry x="-0.3254" y="2" relative="1" as="geometry">
            <mxPoint x="-2" as="offset" />
          </mxGeometry>
        </mxCell>
        <mxCell id="LruoxbvZ4ObsnGQCZo3e-93" value="Locked&lt;br style=&quot;border-color: var(--border-color);&quot;&gt;= 1 ?&amp;nbsp;" style="rhombus;whiteSpace=wrap;html=1;" vertex="1" parent="1">
          <mxGeometry x="473.35" y="628" width="60" height="60" as="geometry" />
        </mxCell>
        <mxCell id="LruoxbvZ4ObsnGQCZo3e-94" value="" style="edgeStyle=orthogonalEdgeStyle;rounded=0;orthogonalLoop=1;jettySize=auto;html=1;" edge="1" parent="1" source="LruoxbvZ4ObsnGQCZo3e-90" target="LruoxbvZ4ObsnGQCZo3e-93">
          <mxGeometry relative="1" as="geometry" />
        </mxCell>
        <mxCell id="LruoxbvZ4ObsnGQCZo3e-95" value="ไม่" style="edgeLabel;html=1;align=center;verticalAlign=middle;resizable=0;points=[];" vertex="1" connectable="0" parent="LruoxbvZ4ObsnGQCZo3e-94">
          <mxGeometry x="-0.3745" relative="1" as="geometry">
            <mxPoint as="offset" />
          </mxGeometry>
        </mxCell>
        <mxCell id="LruoxbvZ4ObsnGQCZo3e-96" style="edgeStyle=orthogonalEdgeStyle;rounded=0;orthogonalLoop=1;jettySize=auto;html=1;entryX=0;entryY=0;entryDx=0;entryDy=0;" edge="1" parent="1" source="LruoxbvZ4ObsnGQCZo3e-97" target="LruoxbvZ4ObsnGQCZo3e-82">
          <mxGeometry relative="1" as="geometry">
            <Array as="points">
              <mxPoint x="410" y="840" />
              <mxPoint x="439" y="840" />
            </Array>
          </mxGeometry>
        </mxCell>
        <mxCell id="LruoxbvZ4ObsnGQCZo3e-97" value="" style="ellipse;whiteSpace=wrap;html=1;aspect=fixed;" vertex="1" parent="1">
          <mxGeometry x="385.75" y="710" width="30" height="30" as="geometry" />
        </mxCell>
        <mxCell id="LruoxbvZ4ObsnGQCZo3e-98" style="edgeStyle=orthogonalEdgeStyle;rounded=0;orthogonalLoop=1;jettySize=auto;html=1;" edge="1" parent="1" source="LruoxbvZ4ObsnGQCZo3e-99" target="LruoxbvZ4ObsnGQCZo3e-97">
          <mxGeometry relative="1" as="geometry">
            <Array as="points">
              <mxPoint x="302" y="413" />
              <mxPoint x="302" y="730" />
            </Array>
          </mxGeometry>
        </mxCell>
        <mxCell id="LruoxbvZ4ObsnGQCZo3e-99" value="rerturn Error Code&amp;nbsp;001&lt;span style=&quot;font-size: medium; text-align: start;&quot;&gt;&lt;/span&gt;" style="rounded=1;whiteSpace=wrap;html=1;" vertex="1" parent="1">
          <mxGeometry x="312" y="393" width="77.5" height="40" as="geometry" />
        </mxCell>
        <mxCell id="LruoxbvZ4ObsnGQCZo3e-100" style="edgeStyle=orthogonalEdgeStyle;rounded=0;orthogonalLoop=1;jettySize=auto;html=1;" edge="1" parent="1" source="LruoxbvZ4ObsnGQCZo3e-88" target="LruoxbvZ4ObsnGQCZo3e-99">
          <mxGeometry relative="1" as="geometry">
            <mxPoint x="402.1" y="518" as="targetPoint" />
          </mxGeometry>
        </mxCell>
        <mxCell id="LruoxbvZ4ObsnGQCZo3e-101" value="ไม่" style="edgeLabel;html=1;align=center;verticalAlign=middle;resizable=0;points=[];" vertex="1" connectable="0" parent="LruoxbvZ4ObsnGQCZo3e-100">
          <mxGeometry x="-0.6573" y="2" relative="1" as="geometry">
            <mxPoint as="offset" />
          </mxGeometry>
        </mxCell>
        <mxCell id="LruoxbvZ4ObsnGQCZo3e-102" style="edgeStyle=orthogonalEdgeStyle;rounded=0;orthogonalLoop=1;jettySize=auto;html=1;entryX=0.5;entryY=0;entryDx=0;entryDy=0;" edge="1" parent="1" source="LruoxbvZ4ObsnGQCZo3e-103" target="LruoxbvZ4ObsnGQCZo3e-97">
          <mxGeometry relative="1" as="geometry" />
        </mxCell>
        <mxCell id="LruoxbvZ4ObsnGQCZo3e-103" value="rerturn Error Code&amp;nbsp;011&lt;span style=&quot;font-size: medium; text-align: start;&quot;&gt;&lt;/span&gt;" style="rounded=1;whiteSpace=wrap;html=1;" vertex="1" parent="1">
          <mxGeometry x="362" y="638" width="77.5" height="40" as="geometry" />
        </mxCell>
        <mxCell id="LruoxbvZ4ObsnGQCZo3e-104" value="" style="edgeStyle=orthogonalEdgeStyle;rounded=0;orthogonalLoop=1;jettySize=auto;html=1;" edge="1" parent="1" source="LruoxbvZ4ObsnGQCZo3e-93" target="LruoxbvZ4ObsnGQCZo3e-103">
          <mxGeometry relative="1" as="geometry" />
        </mxCell>
        <mxCell id="LruoxbvZ4ObsnGQCZo3e-105" value="ใช่" style="edgeLabel;html=1;align=center;verticalAlign=middle;resizable=0;points=[];" vertex="1" connectable="0" parent="LruoxbvZ4ObsnGQCZo3e-104">
          <mxGeometry x="-0.4608" y="1" relative="1" as="geometry">
            <mxPoint as="offset" />
          </mxGeometry>
        </mxCell>
        <mxCell id="LruoxbvZ4ObsnGQCZo3e-106" style="edgeStyle=orthogonalEdgeStyle;rounded=0;orthogonalLoop=1;jettySize=auto;html=1;" edge="1" parent="1" source="LruoxbvZ4ObsnGQCZo3e-107" target="LruoxbvZ4ObsnGQCZo3e-97">
          <mxGeometry relative="1" as="geometry">
            <mxPoint x="402" y="720" as="targetPoint" />
            <Array as="points">
              <mxPoint x="342" y="528" />
              <mxPoint x="342" y="714" />
            </Array>
          </mxGeometry>
        </mxCell>
        <mxCell id="LruoxbvZ4ObsnGQCZo3e-107" value="rerturn Error Code&amp;nbsp;004&lt;span style=&quot;font-size: medium; text-align: start;&quot;&gt;&lt;/span&gt;" style="rounded=1;whiteSpace=wrap;html=1;" vertex="1" parent="1">
          <mxGeometry x="362" y="508" width="77.5" height="40" as="geometry" />
        </mxCell>
        <mxCell id="LruoxbvZ4ObsnGQCZo3e-108" value="" style="edgeStyle=orthogonalEdgeStyle;rounded=0;orthogonalLoop=1;jettySize=auto;html=1;" edge="1" parent="1" source="LruoxbvZ4ObsnGQCZo3e-90" target="LruoxbvZ4ObsnGQCZo3e-107">
          <mxGeometry relative="1" as="geometry" />
        </mxCell>
        <mxCell id="LruoxbvZ4ObsnGQCZo3e-109" value="ใช่" style="edgeLabel;html=1;align=center;verticalAlign=middle;resizable=0;points=[];" vertex="1" connectable="0" parent="LruoxbvZ4ObsnGQCZo3e-108">
          <mxGeometry x="-0.4608" y="2" relative="1" as="geometry">
            <mxPoint as="offset" />
          </mxGeometry>
        </mxCell>
        <mxCell id="LruoxbvZ4ObsnGQCZo3e-110" value="ดึงข้อมูลประเภทการรับเรื่องร้องเรียนทั้งหมด&lt;span style=&quot;font-size: medium; text-align: start;&quot;&gt;&lt;/span&gt;" style="rounded=1;whiteSpace=wrap;html=1;" vertex="1" parent="1">
          <mxGeometry x="574.17" y="634" width="105.85" height="48" as="geometry" />
        </mxCell>
        <mxCell id="LruoxbvZ4ObsnGQCZo3e-111" value="" style="edgeStyle=orthogonalEdgeStyle;rounded=0;orthogonalLoop=1;jettySize=auto;html=1;" edge="1" parent="1" source="LruoxbvZ4ObsnGQCZo3e-93" target="LruoxbvZ4ObsnGQCZo3e-110">
          <mxGeometry relative="1" as="geometry" />
        </mxCell>
        <mxCell id="LruoxbvZ4ObsnGQCZo3e-112" style="edgeStyle=orthogonalEdgeStyle;rounded=0;orthogonalLoop=1;jettySize=auto;html=1;entryX=1;entryY=0.5;entryDx=0;entryDy=0;" edge="1" parent="1" source="LruoxbvZ4ObsnGQCZo3e-113" target="LruoxbvZ4ObsnGQCZo3e-82">
          <mxGeometry relative="1" as="geometry" />
        </mxCell>
        <mxCell id="LruoxbvZ4ObsnGQCZo3e-113" value="ส่งข้อมูลประเภทการรับเรื่องร้องเรียนกลับไป" style="rounded=1;whiteSpace=wrap;html=1;" vertex="1" parent="1">
          <mxGeometry x="566.27" y="730" width="121.65" height="50" as="geometry" />
        </mxCell>
        <mxCell id="LruoxbvZ4ObsnGQCZo3e-114" value="" style="edgeStyle=orthogonalEdgeStyle;rounded=0;orthogonalLoop=1;jettySize=auto;html=1;" edge="1" parent="1" source="LruoxbvZ4ObsnGQCZo3e-110" target="LruoxbvZ4ObsnGQCZo3e-113">
          <mxGeometry relative="1" as="geometry" />
        </mxCell>
      </root>
    </mxGraphModel>
  </diagram>
  <diagram id="UtQbOt4Cpsxyh3Qual1s" name="หน้า-2">
    <mxGraphModel dx="1063" dy="562" grid="1" gridSize="10" guides="1" tooltips="1" connect="1" arrows="1" fold="1" page="1" pageScale="1" pageWidth="827" pageHeight="1169" math="0" shadow="0">
      <root>
        <mxCell id="0" />
        <mxCell id="1" parent="0" />
        <mxCell id="m6K2RUqWKKcZ__Ii0jgC-1" value="" style="group" vertex="1" connectable="0" parent="1">
          <mxGeometry x="60" y="110" width="707.5" height="730" as="geometry" />
        </mxCell>
        <mxCell id="m6K2RUqWKKcZ__Ii0jgC-2" value="เริ่ม" style="ellipse;whiteSpace=wrap;html=1;" vertex="1" parent="m6K2RUqWKKcZ__Ii0jgC-1">
          <mxGeometry x="30" width="80" height="40" as="geometry" />
        </mxCell>
        <mxCell id="m6K2RUqWKKcZ__Ii0jgC-3" value="ตรวจสอบสิทธิ์การใช้งาน" style="rounded=1;whiteSpace=wrap;html=1;" vertex="1" parent="m6K2RUqWKKcZ__Ii0jgC-1">
          <mxGeometry y="80" width="140" height="30" as="geometry" />
        </mxCell>
        <mxCell id="m6K2RUqWKKcZ__Ii0jgC-4" value="" style="edgeStyle=orthogonalEdgeStyle;rounded=0;orthogonalLoop=1;jettySize=auto;html=1;" edge="1" parent="m6K2RUqWKKcZ__Ii0jgC-1" source="m6K2RUqWKKcZ__Ii0jgC-2" target="m6K2RUqWKKcZ__Ii0jgC-3">
          <mxGeometry relative="1" as="geometry" />
        </mxCell>
        <mxCell id="m6K2RUqWKKcZ__Ii0jgC-5" value="มี ?" style="rhombus;whiteSpace=wrap;html=1;" vertex="1" parent="m6K2RUqWKKcZ__Ii0jgC-1">
          <mxGeometry x="40" y="140" width="60" height="60" as="geometry" />
        </mxCell>
        <mxCell id="m6K2RUqWKKcZ__Ii0jgC-6" value="" style="edgeStyle=orthogonalEdgeStyle;rounded=0;orthogonalLoop=1;jettySize=auto;html=1;" edge="1" parent="m6K2RUqWKKcZ__Ii0jgC-1" source="m6K2RUqWKKcZ__Ii0jgC-3" target="m6K2RUqWKKcZ__Ii0jgC-5">
          <mxGeometry relative="1" as="geometry" />
        </mxCell>
        <mxCell id="m6K2RUqWKKcZ__Ii0jgC-7" value="สิ้นสุด" style="ellipse;whiteSpace=wrap;html=1;" vertex="1" parent="m6K2RUqWKKcZ__Ii0jgC-1">
          <mxGeometry x="225" y="690" width="80" height="40" as="geometry" />
        </mxCell>
        <mxCell id="m6K2RUqWKKcZ__Ii0jgC-8" style="edgeStyle=orthogonalEdgeStyle;rounded=0;orthogonalLoop=1;jettySize=auto;html=1;entryX=0;entryY=0.5;entryDx=0;entryDy=0;" edge="1" parent="m6K2RUqWKKcZ__Ii0jgC-1" source="m6K2RUqWKKcZ__Ii0jgC-5" target="m6K2RUqWKKcZ__Ii0jgC-7">
          <mxGeometry relative="1" as="geometry">
            <Array as="points">
              <mxPoint x="70" y="710" />
            </Array>
          </mxGeometry>
        </mxCell>
        <mxCell id="m6K2RUqWKKcZ__Ii0jgC-9" value="ไม่" style="edgeLabel;html=1;align=center;verticalAlign=middle;resizable=0;points=[];" vertex="1" connectable="0" parent="m6K2RUqWKKcZ__Ii0jgC-8">
          <mxGeometry x="-0.8925" y="1" relative="1" as="geometry">
            <mxPoint as="offset" />
          </mxGeometry>
        </mxCell>
        <mxCell id="m6K2RUqWKKcZ__Ii0jgC-10" value="ตรวจสอบ Account &lt;br&gt;สถานะการใช้งาน" style="rounded=1;whiteSpace=wrap;html=1;" vertex="1" parent="m6K2RUqWKKcZ__Ii0jgC-1">
          <mxGeometry x="216.3499999999999" y="149" width="170" height="40" as="geometry" />
        </mxCell>
        <mxCell id="m6K2RUqWKKcZ__Ii0jgC-11" value="" style="edgeStyle=orthogonalEdgeStyle;rounded=0;orthogonalLoop=1;jettySize=auto;html=1;" edge="1" parent="m6K2RUqWKKcZ__Ii0jgC-1" source="m6K2RUqWKKcZ__Ii0jgC-5" target="m6K2RUqWKKcZ__Ii0jgC-10">
          <mxGeometry relative="1" as="geometry">
            <Array as="points">
              <mxPoint x="180" y="170" />
              <mxPoint x="180" y="170" />
            </Array>
          </mxGeometry>
        </mxCell>
        <mxCell id="m6K2RUqWKKcZ__Ii0jgC-12" value="ใช่" style="edgeLabel;html=1;align=center;verticalAlign=middle;resizable=0;points=[];" vertex="1" connectable="0" parent="m6K2RUqWKKcZ__Ii0jgC-11">
          <mxGeometry x="-0.7797" y="-1" relative="1" as="geometry">
            <mxPoint as="offset" />
          </mxGeometry>
        </mxCell>
        <mxCell id="m6K2RUqWKKcZ__Ii0jgC-13" value="มีใน&lt;br&gt;ระบบ &lt;br&gt;?" style="rhombus;whiteSpace=wrap;html=1;" vertex="1" parent="m6K2RUqWKKcZ__Ii0jgC-1">
          <mxGeometry x="263.8499999999999" y="228" width="75" height="70" as="geometry" />
        </mxCell>
        <mxCell id="m6K2RUqWKKcZ__Ii0jgC-14" value="" style="edgeStyle=orthogonalEdgeStyle;rounded=0;orthogonalLoop=1;jettySize=auto;html=1;" edge="1" parent="m6K2RUqWKKcZ__Ii0jgC-1" source="m6K2RUqWKKcZ__Ii0jgC-10" target="m6K2RUqWKKcZ__Ii0jgC-13">
          <mxGeometry relative="1" as="geometry" />
        </mxCell>
        <mxCell id="m6K2RUqWKKcZ__Ii0jgC-15" value="status&lt;br style=&quot;border-color: var(--border-color);&quot;&gt;= 1 ?" style="rhombus;whiteSpace=wrap;html=1;" vertex="1" parent="m6K2RUqWKKcZ__Ii0jgC-1">
          <mxGeometry x="271.3499999999999" y="348" width="60" height="60" as="geometry" />
        </mxCell>
        <mxCell id="m6K2RUqWKKcZ__Ii0jgC-16" value="" style="edgeStyle=orthogonalEdgeStyle;rounded=0;orthogonalLoop=1;jettySize=auto;html=1;" edge="1" parent="m6K2RUqWKKcZ__Ii0jgC-1" source="m6K2RUqWKKcZ__Ii0jgC-13" target="m6K2RUqWKKcZ__Ii0jgC-15">
          <mxGeometry relative="1" as="geometry" />
        </mxCell>
        <mxCell id="m6K2RUqWKKcZ__Ii0jgC-17" value="ใช่" style="edgeLabel;html=1;align=center;verticalAlign=middle;resizable=0;points=[];" vertex="1" connectable="0" parent="m6K2RUqWKKcZ__Ii0jgC-16">
          <mxGeometry x="-0.3254" y="2" relative="1" as="geometry">
            <mxPoint x="-2" as="offset" />
          </mxGeometry>
        </mxCell>
        <mxCell id="m6K2RUqWKKcZ__Ii0jgC-18" value="Locked&lt;br style=&quot;border-color: var(--border-color);&quot;&gt;= 1 ?&amp;nbsp;" style="rhombus;whiteSpace=wrap;html=1;" vertex="1" parent="m6K2RUqWKKcZ__Ii0jgC-1">
          <mxGeometry x="271.3499999999999" y="478" width="60" height="60" as="geometry" />
        </mxCell>
        <mxCell id="m6K2RUqWKKcZ__Ii0jgC-19" value="" style="edgeStyle=orthogonalEdgeStyle;rounded=0;orthogonalLoop=1;jettySize=auto;html=1;" edge="1" parent="m6K2RUqWKKcZ__Ii0jgC-1" source="m6K2RUqWKKcZ__Ii0jgC-15" target="m6K2RUqWKKcZ__Ii0jgC-18">
          <mxGeometry relative="1" as="geometry" />
        </mxCell>
        <mxCell id="m6K2RUqWKKcZ__Ii0jgC-20" value="ไม่" style="edgeLabel;html=1;align=center;verticalAlign=middle;resizable=0;points=[];" vertex="1" connectable="0" parent="m6K2RUqWKKcZ__Ii0jgC-19">
          <mxGeometry x="-0.3745" relative="1" as="geometry">
            <mxPoint as="offset" />
          </mxGeometry>
        </mxCell>
        <mxCell id="m6K2RUqWKKcZ__Ii0jgC-21" style="edgeStyle=orthogonalEdgeStyle;rounded=0;orthogonalLoop=1;jettySize=auto;html=1;entryX=0;entryY=0;entryDx=0;entryDy=0;" edge="1" parent="m6K2RUqWKKcZ__Ii0jgC-1" source="m6K2RUqWKKcZ__Ii0jgC-22" target="m6K2RUqWKKcZ__Ii0jgC-7">
          <mxGeometry relative="1" as="geometry">
            <Array as="points">
              <mxPoint x="208" y="690" />
              <mxPoint x="237" y="690" />
            </Array>
          </mxGeometry>
        </mxCell>
        <mxCell id="m6K2RUqWKKcZ__Ii0jgC-22" value="" style="ellipse;whiteSpace=wrap;html=1;aspect=fixed;" vertex="1" parent="m6K2RUqWKKcZ__Ii0jgC-1">
          <mxGeometry x="183.75" y="560" width="30" height="30" as="geometry" />
        </mxCell>
        <mxCell id="m6K2RUqWKKcZ__Ii0jgC-23" style="edgeStyle=orthogonalEdgeStyle;rounded=0;orthogonalLoop=1;jettySize=auto;html=1;" edge="1" parent="m6K2RUqWKKcZ__Ii0jgC-1" source="m6K2RUqWKKcZ__Ii0jgC-24" target="m6K2RUqWKKcZ__Ii0jgC-22">
          <mxGeometry relative="1" as="geometry">
            <Array as="points">
              <mxPoint x="100" y="263" />
              <mxPoint x="100" y="580" />
            </Array>
          </mxGeometry>
        </mxCell>
        <mxCell id="m6K2RUqWKKcZ__Ii0jgC-24" value="rerturn Error Code&amp;nbsp;001&lt;span style=&quot;font-size: medium; text-align: start;&quot;&gt;&lt;/span&gt;" style="rounded=1;whiteSpace=wrap;html=1;" vertex="1" parent="m6K2RUqWKKcZ__Ii0jgC-1">
          <mxGeometry x="110" y="243" width="77.5" height="40" as="geometry" />
        </mxCell>
        <mxCell id="m6K2RUqWKKcZ__Ii0jgC-25" style="edgeStyle=orthogonalEdgeStyle;rounded=0;orthogonalLoop=1;jettySize=auto;html=1;" edge="1" parent="m6K2RUqWKKcZ__Ii0jgC-1" source="m6K2RUqWKKcZ__Ii0jgC-13" target="m6K2RUqWKKcZ__Ii0jgC-24">
          <mxGeometry relative="1" as="geometry">
            <mxPoint x="200.0999999999999" y="368" as="targetPoint" />
          </mxGeometry>
        </mxCell>
        <mxCell id="m6K2RUqWKKcZ__Ii0jgC-26" value="ไม่" style="edgeLabel;html=1;align=center;verticalAlign=middle;resizable=0;points=[];" vertex="1" connectable="0" parent="m6K2RUqWKKcZ__Ii0jgC-25">
          <mxGeometry x="-0.6573" y="2" relative="1" as="geometry">
            <mxPoint as="offset" />
          </mxGeometry>
        </mxCell>
        <mxCell id="m6K2RUqWKKcZ__Ii0jgC-27" style="edgeStyle=orthogonalEdgeStyle;rounded=0;orthogonalLoop=1;jettySize=auto;html=1;entryX=0.5;entryY=0;entryDx=0;entryDy=0;" edge="1" parent="m6K2RUqWKKcZ__Ii0jgC-1" source="m6K2RUqWKKcZ__Ii0jgC-28" target="m6K2RUqWKKcZ__Ii0jgC-22">
          <mxGeometry relative="1" as="geometry" />
        </mxCell>
        <mxCell id="m6K2RUqWKKcZ__Ii0jgC-28" value="rerturn Error Code&amp;nbsp;011&lt;span style=&quot;font-size: medium; text-align: start;&quot;&gt;&lt;/span&gt;" style="rounded=1;whiteSpace=wrap;html=1;" vertex="1" parent="m6K2RUqWKKcZ__Ii0jgC-1">
          <mxGeometry x="160" y="488" width="77.5" height="40" as="geometry" />
        </mxCell>
        <mxCell id="m6K2RUqWKKcZ__Ii0jgC-29" value="" style="edgeStyle=orthogonalEdgeStyle;rounded=0;orthogonalLoop=1;jettySize=auto;html=1;" edge="1" parent="m6K2RUqWKKcZ__Ii0jgC-1" source="m6K2RUqWKKcZ__Ii0jgC-18" target="m6K2RUqWKKcZ__Ii0jgC-28">
          <mxGeometry relative="1" as="geometry" />
        </mxCell>
        <mxCell id="m6K2RUqWKKcZ__Ii0jgC-30" value="ใช่" style="edgeLabel;html=1;align=center;verticalAlign=middle;resizable=0;points=[];" vertex="1" connectable="0" parent="m6K2RUqWKKcZ__Ii0jgC-29">
          <mxGeometry x="-0.4608" y="1" relative="1" as="geometry">
            <mxPoint as="offset" />
          </mxGeometry>
        </mxCell>
        <mxCell id="m6K2RUqWKKcZ__Ii0jgC-31" style="edgeStyle=orthogonalEdgeStyle;rounded=0;orthogonalLoop=1;jettySize=auto;html=1;" edge="1" parent="m6K2RUqWKKcZ__Ii0jgC-1" source="m6K2RUqWKKcZ__Ii0jgC-32" target="m6K2RUqWKKcZ__Ii0jgC-22">
          <mxGeometry relative="1" as="geometry">
            <mxPoint x="200" y="570" as="targetPoint" />
            <Array as="points">
              <mxPoint x="140" y="378" />
              <mxPoint x="140" y="564" />
            </Array>
          </mxGeometry>
        </mxCell>
        <mxCell id="m6K2RUqWKKcZ__Ii0jgC-32" value="rerturn Error Code&amp;nbsp;004&lt;span style=&quot;font-size: medium; text-align: start;&quot;&gt;&lt;/span&gt;" style="rounded=1;whiteSpace=wrap;html=1;" vertex="1" parent="m6K2RUqWKKcZ__Ii0jgC-1">
          <mxGeometry x="160" y="358" width="77.5" height="40" as="geometry" />
        </mxCell>
        <mxCell id="m6K2RUqWKKcZ__Ii0jgC-33" value="" style="edgeStyle=orthogonalEdgeStyle;rounded=0;orthogonalLoop=1;jettySize=auto;html=1;" edge="1" parent="m6K2RUqWKKcZ__Ii0jgC-1" source="m6K2RUqWKKcZ__Ii0jgC-15" target="m6K2RUqWKKcZ__Ii0jgC-32">
          <mxGeometry relative="1" as="geometry" />
        </mxCell>
        <mxCell id="m6K2RUqWKKcZ__Ii0jgC-34" value="ใช่" style="edgeLabel;html=1;align=center;verticalAlign=middle;resizable=0;points=[];" vertex="1" connectable="0" parent="m6K2RUqWKKcZ__Ii0jgC-33">
          <mxGeometry x="-0.4608" y="2" relative="1" as="geometry">
            <mxPoint as="offset" />
          </mxGeometry>
        </mxCell>
        <mxCell id="m6K2RUqWKKcZ__Ii0jgC-35" value="ดึงข้อมูลประเภทการรับเรื่องร้องเรียนด้วย&lt;br&gt;รหัสอ้างอิงที่ได้รับ&lt;span style=&quot;font-size: medium; text-align: start;&quot;&gt;&lt;/span&gt;" style="rounded=1;whiteSpace=wrap;html=1;" vertex="1" parent="m6K2RUqWKKcZ__Ii0jgC-1">
          <mxGeometry x="363" y="477" width="123.65" height="62" as="geometry" />
        </mxCell>
        <mxCell id="m6K2RUqWKKcZ__Ii0jgC-36" value="" style="edgeStyle=orthogonalEdgeStyle;rounded=0;orthogonalLoop=1;jettySize=auto;html=1;" edge="1" parent="m6K2RUqWKKcZ__Ii0jgC-1" source="m6K2RUqWKKcZ__Ii0jgC-18" target="m6K2RUqWKKcZ__Ii0jgC-35">
          <mxGeometry relative="1" as="geometry" />
        </mxCell>
        <mxCell id="m6K2RUqWKKcZ__Ii0jgC-37" value="ส่งข้อมูลประเภทการรับเรื่องร้องเรียนกลับไป" style="rounded=1;whiteSpace=wrap;html=1;" vertex="1" parent="m6K2RUqWKKcZ__Ii0jgC-1">
          <mxGeometry x="380" y="620" width="83.85" height="50" as="geometry" />
        </mxCell>
        <mxCell id="m6K2RUqWKKcZ__Ii0jgC-38" style="edgeStyle=orthogonalEdgeStyle;rounded=0;orthogonalLoop=1;jettySize=auto;html=1;" edge="1" parent="m6K2RUqWKKcZ__Ii0jgC-1" source="m6K2RUqWKKcZ__Ii0jgC-40" target="m6K2RUqWKKcZ__Ii0jgC-37">
          <mxGeometry relative="1" as="geometry">
            <Array as="points">
              <mxPoint x="560" y="650" />
            </Array>
          </mxGeometry>
        </mxCell>
        <mxCell id="m6K2RUqWKKcZ__Ii0jgC-39" value="ใช่" style="edgeLabel;html=1;align=center;verticalAlign=middle;resizable=0;points=[];" vertex="1" connectable="0" parent="m6K2RUqWKKcZ__Ii0jgC-38">
          <mxGeometry x="-0.7968" y="2" relative="1" as="geometry">
            <mxPoint as="offset" />
          </mxGeometry>
        </mxCell>
        <mxCell id="m6K2RUqWKKcZ__Ii0jgC-40" value="มี ?" style="rhombus;whiteSpace=wrap;html=1;" vertex="1" parent="m6K2RUqWKKcZ__Ii0jgC-1">
          <mxGeometry x="530" y="545" width="60" height="60" as="geometry" />
        </mxCell>
        <mxCell id="m6K2RUqWKKcZ__Ii0jgC-41" value="" style="edgeStyle=orthogonalEdgeStyle;rounded=0;orthogonalLoop=1;jettySize=auto;html=1;" edge="1" parent="m6K2RUqWKKcZ__Ii0jgC-1" source="m6K2RUqWKKcZ__Ii0jgC-35" target="m6K2RUqWKKcZ__Ii0jgC-40">
          <mxGeometry relative="1" as="geometry" />
        </mxCell>
        <mxCell id="m6K2RUqWKKcZ__Ii0jgC-42" value="rerturn Error Code 35&lt;span style=&quot;font-size: medium; text-align: start;&quot;&gt;&lt;/span&gt;" style="rounded=1;whiteSpace=wrap;html=1;" vertex="1" parent="m6K2RUqWKKcZ__Ii0jgC-1">
          <mxGeometry x="630" y="555" width="77.5" height="40" as="geometry" />
        </mxCell>
        <mxCell id="m6K2RUqWKKcZ__Ii0jgC-43" value="" style="edgeStyle=orthogonalEdgeStyle;rounded=0;orthogonalLoop=1;jettySize=auto;html=1;" edge="1" parent="m6K2RUqWKKcZ__Ii0jgC-1" source="m6K2RUqWKKcZ__Ii0jgC-40" target="m6K2RUqWKKcZ__Ii0jgC-42">
          <mxGeometry relative="1" as="geometry" />
        </mxCell>
        <mxCell id="m6K2RUqWKKcZ__Ii0jgC-44" value="ไม่" style="edgeLabel;html=1;align=center;verticalAlign=middle;resizable=0;points=[];" vertex="1" connectable="0" parent="m6K2RUqWKKcZ__Ii0jgC-43">
          <mxGeometry x="-0.1637" relative="1" as="geometry">
            <mxPoint as="offset" />
          </mxGeometry>
        </mxCell>
        <mxCell id="m6K2RUqWKKcZ__Ii0jgC-45" style="edgeStyle=orthogonalEdgeStyle;rounded=0;orthogonalLoop=1;jettySize=auto;html=1;" edge="1" parent="m6K2RUqWKKcZ__Ii0jgC-1" source="m6K2RUqWKKcZ__Ii0jgC-46" target="m6K2RUqWKKcZ__Ii0jgC-7">
          <mxGeometry relative="1" as="geometry" />
        </mxCell>
        <mxCell id="m6K2RUqWKKcZ__Ii0jgC-46" value="" style="ellipse;whiteSpace=wrap;html=1;aspect=fixed;" vertex="1" parent="m6K2RUqWKKcZ__Ii0jgC-1">
          <mxGeometry x="346" y="695" width="30" height="30" as="geometry" />
        </mxCell>
        <mxCell id="m6K2RUqWKKcZ__Ii0jgC-47" style="edgeStyle=orthogonalEdgeStyle;rounded=0;orthogonalLoop=1;jettySize=auto;html=1;" edge="1" parent="m6K2RUqWKKcZ__Ii0jgC-1" source="m6K2RUqWKKcZ__Ii0jgC-37" target="m6K2RUqWKKcZ__Ii0jgC-46">
          <mxGeometry relative="1" as="geometry" />
        </mxCell>
        <mxCell id="m6K2RUqWKKcZ__Ii0jgC-48" style="edgeStyle=orthogonalEdgeStyle;rounded=0;orthogonalLoop=1;jettySize=auto;html=1;entryX=1;entryY=0.5;entryDx=0;entryDy=0;" edge="1" parent="m6K2RUqWKKcZ__Ii0jgC-1" source="m6K2RUqWKKcZ__Ii0jgC-42" target="m6K2RUqWKKcZ__Ii0jgC-46">
          <mxGeometry relative="1" as="geometry">
            <mxPoint x="660" y="710" as="targetPoint" />
            <Array as="points">
              <mxPoint x="669" y="710" />
            </Array>
          </mxGeometry>
        </mxCell>
      </root>
    </mxGraphModel>
  </diagram>
  <diagram id="vBUGF7iDek9qc1r0JK9z" name="หน้า-3">
    <mxGraphModel dx="1664" dy="879" grid="1" gridSize="10" guides="1" tooltips="1" connect="1" arrows="1" fold="1" page="1" pageScale="1" pageWidth="827" pageHeight="1169" math="0" shadow="0">
      <root>
        <mxCell id="0" />
        <mxCell id="1" parent="0" />
        <mxCell id="dM2EveIwPs94CM3dwgeR-1" value="" style="group" vertex="1" connectable="0" parent="1">
          <mxGeometry x="800" y="496" width="96.25" height="177.5" as="geometry" />
        </mxCell>
        <mxCell id="IncNRZ37Fpws1zMUij0I-22" value="สร้างข้อมูลประเภทการรับเรื่องร้องเรียน&lt;span style=&quot;font-size: medium; text-align: start;&quot;&gt;&lt;/span&gt;" style="rounded=1;whiteSpace=wrap;html=1;" vertex="1" parent="dM2EveIwPs94CM3dwgeR-1">
          <mxGeometry width="96.25" height="42.5" as="geometry" />
        </mxCell>
        <mxCell id="IncNRZ37Fpws1zMUij0I-25" value="สร้างข้อมูล ActivityLog&lt;span style=&quot;font-size: medium; text-align: start;&quot;&gt;&lt;/span&gt;" style="rounded=1;whiteSpace=wrap;html=1;" vertex="1" parent="dM2EveIwPs94CM3dwgeR-1">
          <mxGeometry x="6.25" y="67.5" width="77.5" height="40" as="geometry" />
        </mxCell>
        <mxCell id="IncNRZ37Fpws1zMUij0I-21" value="" style="edgeStyle=orthogonalEdgeStyle;rounded=0;orthogonalLoop=1;jettySize=auto;html=1;entryX=0.543;entryY=-0.009;entryDx=0;entryDy=0;entryPerimeter=0;" edge="1" parent="dM2EveIwPs94CM3dwgeR-1" source="IncNRZ37Fpws1zMUij0I-22" target="IncNRZ37Fpws1zMUij0I-25">
          <mxGeometry relative="1" as="geometry" />
        </mxCell>
        <mxCell id="IncNRZ37Fpws1zMUij0I-27" value="บันทึกข้อมูล&lt;span style=&quot;font-size: medium; text-align: start;&quot;&gt;&lt;/span&gt;" style="rounded=1;whiteSpace=wrap;html=1;" vertex="1" parent="dM2EveIwPs94CM3dwgeR-1">
          <mxGeometry x="6.25" y="137.5" width="77.5" height="40" as="geometry" />
        </mxCell>
        <mxCell id="IncNRZ37Fpws1zMUij0I-28" value="" style="edgeStyle=orthogonalEdgeStyle;rounded=0;orthogonalLoop=1;jettySize=auto;html=1;" edge="1" parent="dM2EveIwPs94CM3dwgeR-1" source="IncNRZ37Fpws1zMUij0I-25" target="IncNRZ37Fpws1zMUij0I-27">
          <mxGeometry relative="1" as="geometry" />
        </mxCell>
        <mxCell id="IncNRZ37Fpws1zMUij0I-26" style="edgeStyle=orthogonalEdgeStyle;rounded=0;orthogonalLoop=1;jettySize=auto;html=1;" edge="1" parent="1" source="IncNRZ37Fpws1zMUij0I-27" target="IncNRZ37Fpws1zMUij0I-19">
          <mxGeometry relative="1" as="geometry">
            <Array as="points">
              <mxPoint x="845" y="810" />
            </Array>
          </mxGeometry>
        </mxCell>
        <mxCell id="IncNRZ37Fpws1zMUij0I-2" value="เริ่ม" style="ellipse;whiteSpace=wrap;html=1;" vertex="1" parent="1">
          <mxGeometry x="95" y="100" width="80" height="40" as="geometry" />
        </mxCell>
        <mxCell id="IncNRZ37Fpws1zMUij0I-3" value="ตรวจสอบสิทธิ์การใช้งาน" style="rounded=1;whiteSpace=wrap;html=1;" vertex="1" parent="1">
          <mxGeometry x="65" y="180" width="140" height="30" as="geometry" />
        </mxCell>
        <mxCell id="IncNRZ37Fpws1zMUij0I-4" value="" style="edgeStyle=orthogonalEdgeStyle;rounded=0;orthogonalLoop=1;jettySize=auto;html=1;" edge="1" parent="1" source="IncNRZ37Fpws1zMUij0I-2" target="IncNRZ37Fpws1zMUij0I-3">
          <mxGeometry relative="1" as="geometry" />
        </mxCell>
        <mxCell id="IncNRZ37Fpws1zMUij0I-5" value="มี ?" style="rhombus;whiteSpace=wrap;html=1;" vertex="1" parent="1">
          <mxGeometry x="105" y="240" width="60" height="60" as="geometry" />
        </mxCell>
        <mxCell id="IncNRZ37Fpws1zMUij0I-6" value="" style="edgeStyle=orthogonalEdgeStyle;rounded=0;orthogonalLoop=1;jettySize=auto;html=1;" edge="1" parent="1" source="IncNRZ37Fpws1zMUij0I-3" target="IncNRZ37Fpws1zMUij0I-5">
          <mxGeometry relative="1" as="geometry" />
        </mxCell>
        <mxCell id="IncNRZ37Fpws1zMUij0I-7" value="สิ้นสุด" style="ellipse;whiteSpace=wrap;html=1;" vertex="1" parent="1">
          <mxGeometry x="290" y="790" width="80" height="40" as="geometry" />
        </mxCell>
        <mxCell id="IncNRZ37Fpws1zMUij0I-8" style="edgeStyle=orthogonalEdgeStyle;rounded=0;orthogonalLoop=1;jettySize=auto;html=1;entryX=0;entryY=0.5;entryDx=0;entryDy=0;" edge="1" parent="1" source="IncNRZ37Fpws1zMUij0I-5" target="IncNRZ37Fpws1zMUij0I-7">
          <mxGeometry relative="1" as="geometry">
            <Array as="points">
              <mxPoint x="135" y="810" />
            </Array>
          </mxGeometry>
        </mxCell>
        <mxCell id="IncNRZ37Fpws1zMUij0I-9" value="ไม่" style="edgeLabel;html=1;align=center;verticalAlign=middle;resizable=0;points=[];" vertex="1" connectable="0" parent="IncNRZ37Fpws1zMUij0I-8">
          <mxGeometry x="-0.8925" y="1" relative="1" as="geometry">
            <mxPoint as="offset" />
          </mxGeometry>
        </mxCell>
        <mxCell id="IncNRZ37Fpws1zMUij0I-10" value="ตรวจสอบ Account &lt;br&gt;สถานะการใช้งาน" style="rounded=1;whiteSpace=wrap;html=1;" vertex="1" parent="1">
          <mxGeometry x="340.9999999999999" y="250" width="170" height="40" as="geometry" />
        </mxCell>
        <mxCell id="IncNRZ37Fpws1zMUij0I-11" value="" style="edgeStyle=orthogonalEdgeStyle;rounded=0;orthogonalLoop=1;jettySize=auto;html=1;" edge="1" parent="1" source="IncNRZ37Fpws1zMUij0I-5" target="IncNRZ37Fpws1zMUij0I-10">
          <mxGeometry relative="1" as="geometry">
            <Array as="points">
              <mxPoint x="245" y="270" />
              <mxPoint x="245" y="270" />
            </Array>
          </mxGeometry>
        </mxCell>
        <mxCell id="IncNRZ37Fpws1zMUij0I-12" value="ใช่" style="edgeLabel;html=1;align=center;verticalAlign=middle;resizable=0;points=[];" vertex="1" connectable="0" parent="IncNRZ37Fpws1zMUij0I-11">
          <mxGeometry x="-0.7797" y="-1" relative="1" as="geometry">
            <mxPoint as="offset" />
          </mxGeometry>
        </mxCell>
        <mxCell id="IncNRZ37Fpws1zMUij0I-13" value="" style="edgeStyle=orthogonalEdgeStyle;rounded=0;orthogonalLoop=1;jettySize=auto;html=1;" edge="1" parent="1" source="IncNRZ37Fpws1zMUij0I-10" target="IncNRZ37Fpws1zMUij0I-30">
          <mxGeometry relative="1" as="geometry" />
        </mxCell>
        <mxCell id="IncNRZ37Fpws1zMUij0I-14" style="edgeStyle=orthogonalEdgeStyle;rounded=0;orthogonalLoop=1;jettySize=auto;html=1;entryX=0;entryY=0;entryDx=0;entryDy=0;" edge="1" parent="1" target="IncNRZ37Fpws1zMUij0I-7">
          <mxGeometry relative="1" as="geometry">
            <Array as="points">
              <mxPoint x="273" y="790" />
              <mxPoint x="302" y="790" />
            </Array>
            <mxPoint x="225" y="780" as="sourcePoint" />
          </mxGeometry>
        </mxCell>
        <mxCell id="IncNRZ37Fpws1zMUij0I-15" value="" style="ellipse;whiteSpace=wrap;html=1;aspect=fixed;" vertex="1" parent="1">
          <mxGeometry x="202.5" y="760" width="30" height="30" as="geometry" />
        </mxCell>
        <mxCell id="IncNRZ37Fpws1zMUij0I-16" value="มี ?" style="rhombus;whiteSpace=wrap;html=1;" vertex="1" parent="1">
          <mxGeometry x="595" y="645" width="60" height="60" as="geometry" />
        </mxCell>
        <mxCell id="IncNRZ37Fpws1zMUij0I-17" value="rerturn Error Code 036&lt;span style=&quot;font-size: medium; text-align: start;&quot;&gt;&lt;/span&gt;" style="rounded=1;whiteSpace=wrap;html=1;" vertex="1" parent="1">
          <mxGeometry x="386.45000000000005" y="725" width="77.5" height="40" as="geometry" />
        </mxCell>
        <mxCell id="IncNRZ37Fpws1zMUij0I-18" style="edgeStyle=orthogonalEdgeStyle;rounded=0;orthogonalLoop=1;jettySize=auto;html=1;" edge="1" parent="1" source="IncNRZ37Fpws1zMUij0I-19" target="IncNRZ37Fpws1zMUij0I-7">
          <mxGeometry relative="1" as="geometry" />
        </mxCell>
        <mxCell id="IncNRZ37Fpws1zMUij0I-19" value="" style="ellipse;whiteSpace=wrap;html=1;aspect=fixed;" vertex="1" parent="1">
          <mxGeometry x="411" y="795" width="30" height="30" as="geometry" />
        </mxCell>
        <mxCell id="IncNRZ37Fpws1zMUij0I-20" style="edgeStyle=orthogonalEdgeStyle;rounded=0;orthogonalLoop=1;jettySize=auto;html=1;" edge="1" parent="1" source="IncNRZ37Fpws1zMUij0I-17" target="IncNRZ37Fpws1zMUij0I-19">
          <mxGeometry relative="1" as="geometry" />
        </mxCell>
        <mxCell id="IncNRZ37Fpws1zMUij0I-23" style="edgeStyle=orthogonalEdgeStyle;rounded=0;orthogonalLoop=1;jettySize=auto;html=1;entryX=0;entryY=0.45;entryDx=0;entryDy=0;entryPerimeter=0;" edge="1" parent="1" source="IncNRZ37Fpws1zMUij0I-16" target="dM2EveIwPs94CM3dwgeR-2">
          <mxGeometry relative="1" as="geometry">
            <Array as="points">
              <mxPoint x="670" y="675" />
              <mxPoint x="670" y="447" />
            </Array>
            <mxPoint x="670" y="610" as="targetPoint" />
          </mxGeometry>
        </mxCell>
        <mxCell id="IncNRZ37Fpws1zMUij0I-24" value="ไม่" style="edgeLabel;html=1;align=center;verticalAlign=middle;resizable=0;points=[];" vertex="1" connectable="0" parent="IncNRZ37Fpws1zMUij0I-23">
          <mxGeometry x="-0.7968" y="2" relative="1" as="geometry">
            <mxPoint as="offset" />
          </mxGeometry>
        </mxCell>
        <mxCell id="IncNRZ37Fpws1zMUij0I-29" style="edgeStyle=orthogonalEdgeStyle;rounded=0;orthogonalLoop=1;jettySize=auto;html=1;entryX=0;entryY=0.5;entryDx=0;entryDy=0;" edge="1" parent="1" source="IncNRZ37Fpws1zMUij0I-53" target="IncNRZ37Fpws1zMUij0I-15">
          <mxGeometry relative="1" as="geometry">
            <mxPoint x="171.25" y="423" as="sourcePoint" />
            <Array as="points">
              <mxPoint x="155" y="423" />
              <mxPoint x="155" y="780" />
              <mxPoint x="203" y="780" />
            </Array>
          </mxGeometry>
        </mxCell>
        <mxCell id="IncNRZ37Fpws1zMUij0I-30" value="มีใน&lt;br&gt;ระบบ &lt;br&gt;?" style="rhombus;whiteSpace=wrap;html=1;" vertex="1" parent="1">
          <mxGeometry x="388.94999999999993" y="328" width="75" height="70" as="geometry" />
        </mxCell>
        <mxCell id="IncNRZ37Fpws1zMUij0I-31" value="status&lt;br style=&quot;border-color: var(--border-color);&quot;&gt;= 1 ?" style="rhombus;whiteSpace=wrap;html=1;" vertex="1" parent="1">
          <mxGeometry x="396.44999999999993" y="448" width="60" height="60" as="geometry" />
        </mxCell>
        <mxCell id="IncNRZ37Fpws1zMUij0I-32" value="" style="edgeStyle=orthogonalEdgeStyle;rounded=0;orthogonalLoop=1;jettySize=auto;html=1;" edge="1" parent="1" source="IncNRZ37Fpws1zMUij0I-30" target="IncNRZ37Fpws1zMUij0I-31">
          <mxGeometry relative="1" as="geometry" />
        </mxCell>
        <mxCell id="IncNRZ37Fpws1zMUij0I-33" value="ใช่" style="edgeLabel;html=1;align=center;verticalAlign=middle;resizable=0;points=[];" vertex="1" connectable="0" parent="IncNRZ37Fpws1zMUij0I-32">
          <mxGeometry x="-0.3254" y="2" relative="1" as="geometry">
            <mxPoint x="-2" as="offset" />
          </mxGeometry>
        </mxCell>
        <mxCell id="IncNRZ37Fpws1zMUij0I-34" value="Locked&lt;br style=&quot;border-color: var(--border-color);&quot;&gt;= 1 ?&amp;nbsp;" style="rhombus;whiteSpace=wrap;html=1;" vertex="1" parent="1">
          <mxGeometry x="396.44999999999993" y="578" width="60" height="60" as="geometry" />
        </mxCell>
        <mxCell id="IncNRZ37Fpws1zMUij0I-35" value="" style="edgeStyle=orthogonalEdgeStyle;rounded=0;orthogonalLoop=1;jettySize=auto;html=1;" edge="1" parent="1" source="IncNRZ37Fpws1zMUij0I-31" target="IncNRZ37Fpws1zMUij0I-34">
          <mxGeometry relative="1" as="geometry" />
        </mxCell>
        <mxCell id="IncNRZ37Fpws1zMUij0I-36" value="ไม่" style="edgeLabel;html=1;align=center;verticalAlign=middle;resizable=0;points=[];" vertex="1" connectable="0" parent="IncNRZ37Fpws1zMUij0I-35">
          <mxGeometry x="-0.3745" relative="1" as="geometry">
            <mxPoint as="offset" />
          </mxGeometry>
        </mxCell>
        <mxCell id="IncNRZ37Fpws1zMUij0I-37" style="edgeStyle=orthogonalEdgeStyle;rounded=0;orthogonalLoop=1;jettySize=auto;html=1;" edge="1" parent="1" source="IncNRZ37Fpws1zMUij0I-30" target="IncNRZ37Fpws1zMUij0I-45">
          <mxGeometry relative="1" as="geometry">
            <mxPoint x="322.6" y="363" as="targetPoint" />
          </mxGeometry>
        </mxCell>
        <mxCell id="IncNRZ37Fpws1zMUij0I-38" value="ไม่" style="edgeLabel;html=1;align=center;verticalAlign=middle;resizable=0;points=[];" vertex="1" connectable="0" parent="IncNRZ37Fpws1zMUij0I-37">
          <mxGeometry x="-0.6573" y="2" relative="1" as="geometry">
            <mxPoint as="offset" />
          </mxGeometry>
        </mxCell>
        <mxCell id="IncNRZ37Fpws1zMUij0I-39" style="edgeStyle=orthogonalEdgeStyle;rounded=0;orthogonalLoop=1;jettySize=auto;html=1;entryX=0.5;entryY=0;entryDx=0;entryDy=0;" edge="1" parent="1" source="IncNRZ37Fpws1zMUij0I-40" target="IncNRZ37Fpws1zMUij0I-15">
          <mxGeometry relative="1" as="geometry" />
        </mxCell>
        <mxCell id="IncNRZ37Fpws1zMUij0I-40" value="rerturn Error Code&amp;nbsp;011&lt;span style=&quot;font-size: medium; text-align: start;&quot;&gt;&lt;/span&gt;" style="rounded=1;whiteSpace=wrap;html=1;" vertex="1" parent="1">
          <mxGeometry x="272.5" y="700" width="77.5" height="40" as="geometry" />
        </mxCell>
        <mxCell id="IncNRZ37Fpws1zMUij0I-41" value="ตรวจสอบว่า typeOfComplaintsCode &lt;br&gt;ซ้ำในฐานข้อมูลไหม" style="rounded=1;whiteSpace=wrap;html=1;" vertex="1" parent="1">
          <mxGeometry x="488.1" y="577" width="123.65" height="62" as="geometry" />
        </mxCell>
        <mxCell id="IncNRZ37Fpws1zMUij0I-42" value="" style="edgeStyle=orthogonalEdgeStyle;rounded=0;orthogonalLoop=1;jettySize=auto;html=1;" edge="1" parent="1" source="IncNRZ37Fpws1zMUij0I-34" target="IncNRZ37Fpws1zMUij0I-41">
          <mxGeometry relative="1" as="geometry" />
        </mxCell>
        <mxCell id="IncNRZ37Fpws1zMUij0I-43" value="ไม่" style="edgeLabel;html=1;align=center;verticalAlign=middle;resizable=0;points=[];" vertex="1" connectable="0" parent="IncNRZ37Fpws1zMUij0I-42">
          <mxGeometry x="0.1426" y="-1" relative="1" as="geometry">
            <mxPoint as="offset" />
          </mxGeometry>
        </mxCell>
        <mxCell id="IncNRZ37Fpws1zMUij0I-44" value="" style="edgeStyle=orthogonalEdgeStyle;rounded=0;orthogonalLoop=1;jettySize=auto;html=1;" edge="1" parent="1" source="IncNRZ37Fpws1zMUij0I-41" target="IncNRZ37Fpws1zMUij0I-16">
          <mxGeometry relative="1" as="geometry">
            <Array as="points">
              <mxPoint x="625" y="610" />
            </Array>
          </mxGeometry>
        </mxCell>
        <mxCell id="IncNRZ37Fpws1zMUij0I-45" value="สร้างข้อมูล ActivityLog&lt;span style=&quot;font-size: medium; text-align: start;&quot;&gt;&lt;/span&gt;" style="rounded=1;whiteSpace=wrap;html=1;" vertex="1" parent="1">
          <mxGeometry x="272.5" y="343" width="77.5" height="40" as="geometry" />
        </mxCell>
        <mxCell id="IncNRZ37Fpws1zMUij0I-46" style="edgeStyle=orthogonalEdgeStyle;rounded=0;orthogonalLoop=1;jettySize=auto;html=1;entryX=0;entryY=0;entryDx=0;entryDy=0;" edge="1" parent="1" source="IncNRZ37Fpws1zMUij0I-47" target="IncNRZ37Fpws1zMUij0I-15">
          <mxGeometry relative="1" as="geometry">
            <Array as="points">
              <mxPoint x="165" y="540" />
              <mxPoint x="165" y="764" />
              <mxPoint x="207" y="764" />
            </Array>
          </mxGeometry>
        </mxCell>
        <mxCell id="IncNRZ37Fpws1zMUij0I-47" value="rerturn Error Code&amp;nbsp;004&lt;span style=&quot;font-size: medium; text-align: start;&quot;&gt;&lt;/span&gt;" style="rounded=1;whiteSpace=wrap;html=1;" vertex="1" parent="1">
          <mxGeometry x="171.25" y="520" width="77.5" height="40" as="geometry" />
        </mxCell>
        <mxCell id="IncNRZ37Fpws1zMUij0I-48" value="สร้างข้อมูล ActivityLog&lt;span style=&quot;font-size: medium; text-align: start;&quot;&gt;&lt;/span&gt;" style="rounded=1;whiteSpace=wrap;html=1;" vertex="1" parent="1">
          <mxGeometry x="272.5" y="458" width="77.5" height="40" as="geometry" />
        </mxCell>
        <mxCell id="IncNRZ37Fpws1zMUij0I-49" value="" style="edgeStyle=orthogonalEdgeStyle;rounded=0;orthogonalLoop=1;jettySize=auto;html=1;" edge="1" parent="1" source="IncNRZ37Fpws1zMUij0I-31" target="IncNRZ37Fpws1zMUij0I-48">
          <mxGeometry relative="1" as="geometry" />
        </mxCell>
        <mxCell id="IncNRZ37Fpws1zMUij0I-50" value="ใช่" style="edgeLabel;html=1;align=center;verticalAlign=middle;resizable=0;points=[];" vertex="1" connectable="0" parent="IncNRZ37Fpws1zMUij0I-49">
          <mxGeometry x="-0.1729" relative="1" as="geometry">
            <mxPoint as="offset" />
          </mxGeometry>
        </mxCell>
        <mxCell id="IncNRZ37Fpws1zMUij0I-51" value="บันทึกข้อมูล&lt;span style=&quot;font-size: medium; text-align: start;&quot;&gt;&lt;/span&gt;" style="rounded=1;whiteSpace=wrap;html=1;" vertex="1" parent="1">
          <mxGeometry x="175" y="343" width="77.5" height="40" as="geometry" />
        </mxCell>
        <mxCell id="IncNRZ37Fpws1zMUij0I-52" value="" style="edgeStyle=orthogonalEdgeStyle;rounded=0;orthogonalLoop=1;jettySize=auto;html=1;" edge="1" parent="1" source="IncNRZ37Fpws1zMUij0I-45" target="IncNRZ37Fpws1zMUij0I-51">
          <mxGeometry relative="1" as="geometry" />
        </mxCell>
        <mxCell id="IncNRZ37Fpws1zMUij0I-53" value="rerturn Error Code&amp;nbsp;001&lt;span style=&quot;font-size: medium; text-align: start;&quot;&gt;&lt;/span&gt;" style="rounded=1;whiteSpace=wrap;html=1;" vertex="1" parent="1">
          <mxGeometry x="175" y="408" width="77.5" height="40" as="geometry" />
        </mxCell>
        <mxCell id="IncNRZ37Fpws1zMUij0I-54" value="" style="edgeStyle=orthogonalEdgeStyle;rounded=0;orthogonalLoop=1;jettySize=auto;html=1;" edge="1" parent="1" source="IncNRZ37Fpws1zMUij0I-51" target="IncNRZ37Fpws1zMUij0I-53">
          <mxGeometry relative="1" as="geometry" />
        </mxCell>
        <mxCell id="IncNRZ37Fpws1zMUij0I-55" value="" style="edgeStyle=orthogonalEdgeStyle;rounded=0;orthogonalLoop=1;jettySize=auto;html=1;" edge="1" parent="1" source="IncNRZ37Fpws1zMUij0I-56" target="IncNRZ37Fpws1zMUij0I-47">
          <mxGeometry relative="1" as="geometry" />
        </mxCell>
        <mxCell id="IncNRZ37Fpws1zMUij0I-56" value="บันทึกข้อมูล&lt;span style=&quot;font-size: medium; text-align: start;&quot;&gt;&lt;/span&gt;" style="rounded=1;whiteSpace=wrap;html=1;" vertex="1" parent="1">
          <mxGeometry x="272.5" y="520" width="77.5" height="40" as="geometry" />
        </mxCell>
        <mxCell id="IncNRZ37Fpws1zMUij0I-57" value="" style="edgeStyle=orthogonalEdgeStyle;rounded=0;orthogonalLoop=1;jettySize=auto;html=1;" edge="1" parent="1" source="IncNRZ37Fpws1zMUij0I-48" target="IncNRZ37Fpws1zMUij0I-56">
          <mxGeometry relative="1" as="geometry" />
        </mxCell>
        <mxCell id="IncNRZ37Fpws1zMUij0I-58" value="สร้างข้อมูล ActivityLog&lt;span style=&quot;font-size: medium; text-align: start;&quot;&gt;&lt;/span&gt;" style="rounded=1;whiteSpace=wrap;html=1;" vertex="1" parent="1">
          <mxGeometry x="272.5" y="588" width="77.5" height="40" as="geometry" />
        </mxCell>
        <mxCell id="IncNRZ37Fpws1zMUij0I-59" value="" style="edgeStyle=orthogonalEdgeStyle;rounded=0;orthogonalLoop=1;jettySize=auto;html=1;" edge="1" parent="1" source="IncNRZ37Fpws1zMUij0I-34" target="IncNRZ37Fpws1zMUij0I-58">
          <mxGeometry relative="1" as="geometry" />
        </mxCell>
        <mxCell id="IncNRZ37Fpws1zMUij0I-60" value="ใช่" style="edgeLabel;html=1;align=center;verticalAlign=middle;resizable=0;points=[];" vertex="1" connectable="0" parent="IncNRZ37Fpws1zMUij0I-59">
          <mxGeometry x="-0.1659" y="-1" relative="1" as="geometry">
            <mxPoint as="offset" />
          </mxGeometry>
        </mxCell>
        <mxCell id="IncNRZ37Fpws1zMUij0I-61" value="" style="edgeStyle=orthogonalEdgeStyle;rounded=0;orthogonalLoop=1;jettySize=auto;html=1;" edge="1" parent="1" source="IncNRZ37Fpws1zMUij0I-62" target="IncNRZ37Fpws1zMUij0I-40">
          <mxGeometry relative="1" as="geometry" />
        </mxCell>
        <mxCell id="IncNRZ37Fpws1zMUij0I-62" value="บันทึกข้อมูล&lt;span style=&quot;font-size: medium; text-align: start;&quot;&gt;&lt;/span&gt;" style="rounded=1;whiteSpace=wrap;html=1;" vertex="1" parent="1">
          <mxGeometry x="272.5" y="645" width="77.5" height="40" as="geometry" />
        </mxCell>
        <mxCell id="IncNRZ37Fpws1zMUij0I-63" value="สร้างข้อมูล ActivityLog&lt;span style=&quot;font-size: medium; text-align: start;&quot;&gt;&lt;/span&gt;" style="rounded=1;whiteSpace=wrap;html=1;" vertex="1" parent="1">
          <mxGeometry x="488.1" y="655" width="77.5" height="40" as="geometry" />
        </mxCell>
        <mxCell id="IncNRZ37Fpws1zMUij0I-64" value="" style="edgeStyle=orthogonalEdgeStyle;rounded=0;orthogonalLoop=1;jettySize=auto;html=1;" edge="1" parent="1" source="IncNRZ37Fpws1zMUij0I-58" target="IncNRZ37Fpws1zMUij0I-62">
          <mxGeometry relative="1" as="geometry" />
        </mxCell>
        <mxCell id="IncNRZ37Fpws1zMUij0I-65" style="edgeStyle=orthogonalEdgeStyle;rounded=0;orthogonalLoop=1;jettySize=auto;html=1;entryX=0.5;entryY=0;entryDx=0;entryDy=0;" edge="1" parent="1" source="IncNRZ37Fpws1zMUij0I-66" target="IncNRZ37Fpws1zMUij0I-17">
          <mxGeometry relative="1" as="geometry" />
        </mxCell>
        <mxCell id="IncNRZ37Fpws1zMUij0I-66" value="บันทึกข้อมูล&lt;span style=&quot;font-size: medium; text-align: start;&quot;&gt;&lt;/span&gt;" style="rounded=1;whiteSpace=wrap;html=1;" vertex="1" parent="1">
          <mxGeometry x="386.45000000000005" y="655" width="77.5" height="40" as="geometry" />
        </mxCell>
        <mxCell id="IncNRZ37Fpws1zMUij0I-67" value="" style="edgeStyle=orthogonalEdgeStyle;rounded=0;orthogonalLoop=1;jettySize=auto;html=1;" edge="1" parent="1" source="IncNRZ37Fpws1zMUij0I-16" target="IncNRZ37Fpws1zMUij0I-63">
          <mxGeometry relative="1" as="geometry" />
        </mxCell>
        <mxCell id="IncNRZ37Fpws1zMUij0I-68" value="" style="edgeStyle=orthogonalEdgeStyle;rounded=0;orthogonalLoop=1;jettySize=auto;html=1;" edge="1" parent="1" source="IncNRZ37Fpws1zMUij0I-63" target="IncNRZ37Fpws1zMUij0I-66">
          <mxGeometry relative="1" as="geometry" />
        </mxCell>
        <mxCell id="UYUzARactN0l2ZnE1r29-8" style="edgeStyle=orthogonalEdgeStyle;rounded=0;orthogonalLoop=1;jettySize=auto;html=1;" edge="1" parent="1" source="dM2EveIwPs94CM3dwgeR-2">
          <mxGeometry relative="1" as="geometry">
            <mxPoint x="720" y="500" as="targetPoint" />
          </mxGeometry>
        </mxCell>
        <mxCell id="UYUzARactN0l2ZnE1r29-10" value="ไม่" style="edgeLabel;html=1;align=center;verticalAlign=middle;resizable=0;points=[];" vertex="1" connectable="0" parent="UYUzARactN0l2ZnE1r29-8">
          <mxGeometry x="-0.4932" relative="1" as="geometry">
            <mxPoint as="offset" />
          </mxGeometry>
        </mxCell>
        <mxCell id="UYUzARactN0l2ZnE1r29-11" style="edgeStyle=orthogonalEdgeStyle;rounded=0;orthogonalLoop=1;jettySize=auto;html=1;" edge="1" parent="1" source="dM2EveIwPs94CM3dwgeR-2" target="IncNRZ37Fpws1zMUij0I-22">
          <mxGeometry relative="1" as="geometry" />
        </mxCell>
        <mxCell id="dM2EveIwPs94CM3dwgeR-2" value="Company&lt;br&gt;?" style="rhombus;whiteSpace=wrap;html=1;" vertex="1" parent="1">
          <mxGeometry x="690" y="420" width="60" height="60" as="geometry" />
        </mxCell>
        <mxCell id="UYUzARactN0l2ZnE1r29-9" style="edgeStyle=orthogonalEdgeStyle;rounded=0;orthogonalLoop=1;jettySize=auto;html=1;entryX=1;entryY=0;entryDx=0;entryDy=0;" edge="1" parent="1" source="UYUzARactN0l2ZnE1r29-1" target="IncNRZ37Fpws1zMUij0I-19">
          <mxGeometry relative="1" as="geometry">
            <Array as="points">
              <mxPoint x="719" y="790" />
              <mxPoint x="437" y="790" />
            </Array>
          </mxGeometry>
        </mxCell>
        <mxCell id="UYUzARactN0l2ZnE1r29-1" value="rerturn Error Code 007&lt;span style=&quot;font-size: medium; text-align: start;&quot;&gt;&lt;/span&gt;" style="rounded=1;whiteSpace=wrap;html=1;" vertex="1" parent="1">
          <mxGeometry x="680" y="630" width="77.5" height="40" as="geometry" />
        </mxCell>
        <mxCell id="UYUzARactN0l2ZnE1r29-2" value="สร้างข้อมูล ActivityLog&lt;span style=&quot;font-size: medium; text-align: start;&quot;&gt;&lt;/span&gt;" style="rounded=1;whiteSpace=wrap;html=1;" vertex="1" parent="1">
          <mxGeometry x="680" y="500" width="77.5" height="40" as="geometry" />
        </mxCell>
        <mxCell id="UYUzARactN0l2ZnE1r29-3" value="" style="edgeStyle=orthogonalEdgeStyle;rounded=0;orthogonalLoop=1;jettySize=auto;html=1;" edge="1" parent="1" source="UYUzARactN0l2ZnE1r29-4" target="UYUzARactN0l2ZnE1r29-1">
          <mxGeometry relative="1" as="geometry" />
        </mxCell>
        <mxCell id="UYUzARactN0l2ZnE1r29-4" value="บันทึกข้อมูล&lt;span style=&quot;font-size: medium; text-align: start;&quot;&gt;&lt;/span&gt;" style="rounded=1;whiteSpace=wrap;html=1;" vertex="1" parent="1">
          <mxGeometry x="680" y="565" width="77.5" height="40" as="geometry" />
        </mxCell>
        <mxCell id="UYUzARactN0l2ZnE1r29-5" value="" style="edgeStyle=orthogonalEdgeStyle;rounded=0;orthogonalLoop=1;jettySize=auto;html=1;" edge="1" parent="1" source="UYUzARactN0l2ZnE1r29-2" target="UYUzARactN0l2ZnE1r29-4">
          <mxGeometry relative="1" as="geometry" />
        </mxCell>
      </root>
    </mxGraphModel>
  </diagram>
  <diagram id="efT2dtLkk_rZrRay_llM" name="หน้า-4">
    <mxGraphModel dx="1914" dy="1011" grid="1" gridSize="10" guides="1" tooltips="1" connect="1" arrows="1" fold="1" page="1" pageScale="1" pageWidth="827" pageHeight="1169" math="0" shadow="0">
      <root>
        <mxCell id="0" />
        <mxCell id="1" parent="0" />
        <mxCell id="Eos4zvJPWw53F5UFinfd-1" value="" style="group" vertex="1" connectable="0" parent="1">
          <mxGeometry x="35" y="120" width="757.5" height="900" as="geometry" />
        </mxCell>
        <mxCell id="Eos4zvJPWw53F5UFinfd-2" value="เริ่ม" style="ellipse;whiteSpace=wrap;html=1;" vertex="1" parent="Eos4zvJPWw53F5UFinfd-1">
          <mxGeometry x="30" width="80" height="40" as="geometry" />
        </mxCell>
        <mxCell id="Eos4zvJPWw53F5UFinfd-3" value="ตรวจสอบสิทธิ์การใช้งาน" style="rounded=1;whiteSpace=wrap;html=1;" vertex="1" parent="Eos4zvJPWw53F5UFinfd-1">
          <mxGeometry y="80" width="140" height="30" as="geometry" />
        </mxCell>
        <mxCell id="Eos4zvJPWw53F5UFinfd-4" value="" style="edgeStyle=orthogonalEdgeStyle;rounded=0;orthogonalLoop=1;jettySize=auto;html=1;" edge="1" parent="Eos4zvJPWw53F5UFinfd-1" source="Eos4zvJPWw53F5UFinfd-2" target="Eos4zvJPWw53F5UFinfd-3">
          <mxGeometry relative="1" as="geometry" />
        </mxCell>
        <mxCell id="Eos4zvJPWw53F5UFinfd-5" value="มี ?" style="rhombus;whiteSpace=wrap;html=1;" vertex="1" parent="Eos4zvJPWw53F5UFinfd-1">
          <mxGeometry x="40" y="140" width="60" height="60" as="geometry" />
        </mxCell>
        <mxCell id="Eos4zvJPWw53F5UFinfd-6" value="" style="edgeStyle=orthogonalEdgeStyle;rounded=0;orthogonalLoop=1;jettySize=auto;html=1;" edge="1" parent="Eos4zvJPWw53F5UFinfd-1" source="Eos4zvJPWw53F5UFinfd-3" target="Eos4zvJPWw53F5UFinfd-5">
          <mxGeometry relative="1" as="geometry" />
        </mxCell>
        <mxCell id="Eos4zvJPWw53F5UFinfd-7" value="สิ้นสุด" style="ellipse;whiteSpace=wrap;html=1;" vertex="1" parent="Eos4zvJPWw53F5UFinfd-1">
          <mxGeometry x="225" y="690" width="80" height="40" as="geometry" />
        </mxCell>
        <mxCell id="Eos4zvJPWw53F5UFinfd-8" style="edgeStyle=orthogonalEdgeStyle;rounded=0;orthogonalLoop=1;jettySize=auto;html=1;entryX=0;entryY=0.5;entryDx=0;entryDy=0;" edge="1" parent="Eos4zvJPWw53F5UFinfd-1" source="Eos4zvJPWw53F5UFinfd-5" target="Eos4zvJPWw53F5UFinfd-7">
          <mxGeometry relative="1" as="geometry">
            <Array as="points">
              <mxPoint x="70" y="710" />
            </Array>
          </mxGeometry>
        </mxCell>
        <mxCell id="Eos4zvJPWw53F5UFinfd-9" value="ไม่" style="edgeLabel;html=1;align=center;verticalAlign=middle;resizable=0;points=[];" vertex="1" connectable="0" parent="Eos4zvJPWw53F5UFinfd-8">
          <mxGeometry x="-0.8925" y="1" relative="1" as="geometry">
            <mxPoint as="offset" />
          </mxGeometry>
        </mxCell>
        <mxCell id="Eos4zvJPWw53F5UFinfd-10" value="ตรวจสอบ Account &lt;br&gt;สถานะการใช้งาน" style="rounded=1;whiteSpace=wrap;html=1;" vertex="1" parent="Eos4zvJPWw53F5UFinfd-1">
          <mxGeometry x="276" y="150" width="170" height="40" as="geometry" />
        </mxCell>
        <mxCell id="Eos4zvJPWw53F5UFinfd-11" value="" style="edgeStyle=orthogonalEdgeStyle;rounded=0;orthogonalLoop=1;jettySize=auto;html=1;" edge="1" parent="Eos4zvJPWw53F5UFinfd-1" source="Eos4zvJPWw53F5UFinfd-5" target="Eos4zvJPWw53F5UFinfd-10">
          <mxGeometry relative="1" as="geometry">
            <Array as="points">
              <mxPoint x="180" y="170" />
              <mxPoint x="180" y="170" />
            </Array>
          </mxGeometry>
        </mxCell>
        <mxCell id="Eos4zvJPWw53F5UFinfd-12" value="ใช่" style="edgeLabel;html=1;align=center;verticalAlign=middle;resizable=0;points=[];" vertex="1" connectable="0" parent="Eos4zvJPWw53F5UFinfd-11">
          <mxGeometry x="-0.7797" y="-1" relative="1" as="geometry">
            <mxPoint as="offset" />
          </mxGeometry>
        </mxCell>
        <mxCell id="Eos4zvJPWw53F5UFinfd-13" value="" style="edgeStyle=orthogonalEdgeStyle;rounded=0;orthogonalLoop=1;jettySize=auto;html=1;" edge="1" parent="Eos4zvJPWw53F5UFinfd-1" source="Eos4zvJPWw53F5UFinfd-10" target="Eos4zvJPWw53F5UFinfd-20">
          <mxGeometry relative="1" as="geometry" />
        </mxCell>
        <mxCell id="Eos4zvJPWw53F5UFinfd-14" style="edgeStyle=orthogonalEdgeStyle;rounded=0;orthogonalLoop=1;jettySize=auto;html=1;entryX=0;entryY=0;entryDx=0;entryDy=0;" edge="1" parent="Eos4zvJPWw53F5UFinfd-1" target="Eos4zvJPWw53F5UFinfd-7">
          <mxGeometry relative="1" as="geometry">
            <Array as="points">
              <mxPoint x="208" y="690" />
              <mxPoint x="237" y="690" />
            </Array>
            <mxPoint x="160" y="680" as="sourcePoint" />
          </mxGeometry>
        </mxCell>
        <mxCell id="Eos4zvJPWw53F5UFinfd-15" value="" style="ellipse;whiteSpace=wrap;html=1;aspect=fixed;" vertex="1" parent="Eos4zvJPWw53F5UFinfd-1">
          <mxGeometry x="137.5" y="660" width="30" height="30" as="geometry" />
        </mxCell>
        <mxCell id="Eos4zvJPWw53F5UFinfd-16" style="edgeStyle=orthogonalEdgeStyle;rounded=0;orthogonalLoop=1;jettySize=auto;html=1;" edge="1" parent="Eos4zvJPWw53F5UFinfd-1" source="Eos4zvJPWw53F5UFinfd-17" target="Eos4zvJPWw53F5UFinfd-7">
          <mxGeometry relative="1" as="geometry" />
        </mxCell>
        <mxCell id="Eos4zvJPWw53F5UFinfd-17" value="" style="ellipse;whiteSpace=wrap;html=1;aspect=fixed;" vertex="1" parent="Eos4zvJPWw53F5UFinfd-1">
          <mxGeometry x="346" y="695" width="30" height="30" as="geometry" />
        </mxCell>
        <mxCell id="Eos4zvJPWw53F5UFinfd-18" style="edgeStyle=orthogonalEdgeStyle;rounded=0;orthogonalLoop=1;jettySize=auto;html=1;" edge="1" parent="Eos4zvJPWw53F5UFinfd-1" source="Eos4zvJPWw53F5UFinfd-51" target="Eos4zvJPWw53F5UFinfd-17">
          <mxGeometry relative="1" as="geometry" />
        </mxCell>
        <mxCell id="Eos4zvJPWw53F5UFinfd-19" style="edgeStyle=orthogonalEdgeStyle;rounded=0;orthogonalLoop=1;jettySize=auto;html=1;entryX=0;entryY=0.5;entryDx=0;entryDy=0;" edge="1" parent="Eos4zvJPWw53F5UFinfd-1" source="Eos4zvJPWw53F5UFinfd-39" target="Eos4zvJPWw53F5UFinfd-15">
          <mxGeometry relative="1" as="geometry">
            <mxPoint x="106.25" y="323" as="sourcePoint" />
            <Array as="points">
              <mxPoint x="90" y="323" />
              <mxPoint x="90" y="680" />
              <mxPoint x="138" y="680" />
            </Array>
          </mxGeometry>
        </mxCell>
        <mxCell id="Eos4zvJPWw53F5UFinfd-20" value="มีใน&lt;br&gt;ระบบ &lt;br&gt;?" style="rhombus;whiteSpace=wrap;html=1;" vertex="1" parent="Eos4zvJPWw53F5UFinfd-1">
          <mxGeometry x="323.9499999999998" y="228" width="75" height="70" as="geometry" />
        </mxCell>
        <mxCell id="Eos4zvJPWw53F5UFinfd-21" value="status&lt;br style=&quot;border-color: var(--border-color);&quot;&gt;= 1 ?" style="rhombus;whiteSpace=wrap;html=1;" vertex="1" parent="Eos4zvJPWw53F5UFinfd-1">
          <mxGeometry x="331.4499999999998" y="348" width="60" height="60" as="geometry" />
        </mxCell>
        <mxCell id="Eos4zvJPWw53F5UFinfd-22" value="" style="edgeStyle=orthogonalEdgeStyle;rounded=0;orthogonalLoop=1;jettySize=auto;html=1;" edge="1" parent="Eos4zvJPWw53F5UFinfd-1" source="Eos4zvJPWw53F5UFinfd-20" target="Eos4zvJPWw53F5UFinfd-21">
          <mxGeometry relative="1" as="geometry" />
        </mxCell>
        <mxCell id="Eos4zvJPWw53F5UFinfd-23" value="ใช่" style="edgeLabel;html=1;align=center;verticalAlign=middle;resizable=0;points=[];" vertex="1" connectable="0" parent="Eos4zvJPWw53F5UFinfd-22">
          <mxGeometry x="-0.3254" y="2" relative="1" as="geometry">
            <mxPoint x="-2" as="offset" />
          </mxGeometry>
        </mxCell>
        <mxCell id="Eos4zvJPWw53F5UFinfd-24" value="Locked&lt;br style=&quot;border-color: var(--border-color);&quot;&gt;= 1 ?&amp;nbsp;" style="rhombus;whiteSpace=wrap;html=1;" vertex="1" parent="Eos4zvJPWw53F5UFinfd-1">
          <mxGeometry x="331.4499999999998" y="478" width="60" height="60" as="geometry" />
        </mxCell>
        <mxCell id="Eos4zvJPWw53F5UFinfd-25" value="" style="edgeStyle=orthogonalEdgeStyle;rounded=0;orthogonalLoop=1;jettySize=auto;html=1;" edge="1" parent="Eos4zvJPWw53F5UFinfd-1" source="Eos4zvJPWw53F5UFinfd-21" target="Eos4zvJPWw53F5UFinfd-24">
          <mxGeometry relative="1" as="geometry" />
        </mxCell>
        <mxCell id="Eos4zvJPWw53F5UFinfd-26" value="ไม่" style="edgeLabel;html=1;align=center;verticalAlign=middle;resizable=0;points=[];" vertex="1" connectable="0" parent="Eos4zvJPWw53F5UFinfd-25">
          <mxGeometry x="-0.3745" relative="1" as="geometry">
            <mxPoint as="offset" />
          </mxGeometry>
        </mxCell>
        <mxCell id="Eos4zvJPWw53F5UFinfd-27" style="edgeStyle=orthogonalEdgeStyle;rounded=0;orthogonalLoop=1;jettySize=auto;html=1;" edge="1" parent="Eos4zvJPWw53F5UFinfd-1" source="Eos4zvJPWw53F5UFinfd-20" target="Eos4zvJPWw53F5UFinfd-31">
          <mxGeometry relative="1" as="geometry">
            <mxPoint x="257.5999999999999" y="263" as="targetPoint" />
          </mxGeometry>
        </mxCell>
        <mxCell id="Eos4zvJPWw53F5UFinfd-28" value="ไม่" style="edgeLabel;html=1;align=center;verticalAlign=middle;resizable=0;points=[];" vertex="1" connectable="0" parent="Eos4zvJPWw53F5UFinfd-27">
          <mxGeometry x="-0.6573" y="2" relative="1" as="geometry">
            <mxPoint as="offset" />
          </mxGeometry>
        </mxCell>
        <mxCell id="Eos4zvJPWw53F5UFinfd-29" style="edgeStyle=orthogonalEdgeStyle;rounded=0;orthogonalLoop=1;jettySize=auto;html=1;entryX=0.5;entryY=0;entryDx=0;entryDy=0;" edge="1" parent="Eos4zvJPWw53F5UFinfd-1" source="Eos4zvJPWw53F5UFinfd-30" target="Eos4zvJPWw53F5UFinfd-15">
          <mxGeometry relative="1" as="geometry" />
        </mxCell>
        <mxCell id="Eos4zvJPWw53F5UFinfd-30" value="rerturn Error Code&amp;nbsp;011&lt;span style=&quot;font-size: medium; text-align: start;&quot;&gt;&lt;/span&gt;" style="rounded=1;whiteSpace=wrap;html=1;" vertex="1" parent="Eos4zvJPWw53F5UFinfd-1">
          <mxGeometry x="207.5" y="600" width="77.5" height="40" as="geometry" />
        </mxCell>
        <mxCell id="Eos4zvJPWw53F5UFinfd-31" value="สร้างข้อมูล ActivityLog&lt;span style=&quot;font-size: medium; text-align: start;&quot;&gt;&lt;/span&gt;" style="rounded=1;whiteSpace=wrap;html=1;" vertex="1" parent="Eos4zvJPWw53F5UFinfd-1">
          <mxGeometry x="207.5" y="243" width="77.5" height="40" as="geometry" />
        </mxCell>
        <mxCell id="Eos4zvJPWw53F5UFinfd-32" style="edgeStyle=orthogonalEdgeStyle;rounded=0;orthogonalLoop=1;jettySize=auto;html=1;entryX=0;entryY=0;entryDx=0;entryDy=0;" edge="1" parent="Eos4zvJPWw53F5UFinfd-1" source="Eos4zvJPWw53F5UFinfd-33" target="Eos4zvJPWw53F5UFinfd-15">
          <mxGeometry relative="1" as="geometry">
            <Array as="points">
              <mxPoint x="100" y="440" />
              <mxPoint x="100" y="664" />
              <mxPoint x="142" y="664" />
            </Array>
          </mxGeometry>
        </mxCell>
        <mxCell id="Eos4zvJPWw53F5UFinfd-33" value="rerturn Error Code&amp;nbsp;004&lt;span style=&quot;font-size: medium; text-align: start;&quot;&gt;&lt;/span&gt;" style="rounded=1;whiteSpace=wrap;html=1;" vertex="1" parent="Eos4zvJPWw53F5UFinfd-1">
          <mxGeometry x="106.25" y="420" width="77.5" height="40" as="geometry" />
        </mxCell>
        <mxCell id="Eos4zvJPWw53F5UFinfd-34" value="สร้างข้อมูล ActivityLog&lt;span style=&quot;font-size: medium; text-align: start;&quot;&gt;&lt;/span&gt;" style="rounded=1;whiteSpace=wrap;html=1;" vertex="1" parent="Eos4zvJPWw53F5UFinfd-1">
          <mxGeometry x="207.5" y="358" width="77.5" height="40" as="geometry" />
        </mxCell>
        <mxCell id="Eos4zvJPWw53F5UFinfd-35" value="" style="edgeStyle=orthogonalEdgeStyle;rounded=0;orthogonalLoop=1;jettySize=auto;html=1;" edge="1" parent="Eos4zvJPWw53F5UFinfd-1" source="Eos4zvJPWw53F5UFinfd-21" target="Eos4zvJPWw53F5UFinfd-34">
          <mxGeometry relative="1" as="geometry" />
        </mxCell>
        <mxCell id="Eos4zvJPWw53F5UFinfd-36" value="ใช่" style="edgeLabel;html=1;align=center;verticalAlign=middle;resizable=0;points=[];" vertex="1" connectable="0" parent="Eos4zvJPWw53F5UFinfd-35">
          <mxGeometry x="-0.1729" relative="1" as="geometry">
            <mxPoint as="offset" />
          </mxGeometry>
        </mxCell>
        <mxCell id="Eos4zvJPWw53F5UFinfd-37" value="บันทึกข้อมูล&lt;span style=&quot;font-size: medium; text-align: start;&quot;&gt;&lt;/span&gt;" style="rounded=1;whiteSpace=wrap;html=1;" vertex="1" parent="Eos4zvJPWw53F5UFinfd-1">
          <mxGeometry x="110" y="243" width="77.5" height="40" as="geometry" />
        </mxCell>
        <mxCell id="Eos4zvJPWw53F5UFinfd-38" value="" style="edgeStyle=orthogonalEdgeStyle;rounded=0;orthogonalLoop=1;jettySize=auto;html=1;" edge="1" parent="Eos4zvJPWw53F5UFinfd-1" source="Eos4zvJPWw53F5UFinfd-31" target="Eos4zvJPWw53F5UFinfd-37">
          <mxGeometry relative="1" as="geometry" />
        </mxCell>
        <mxCell id="Eos4zvJPWw53F5UFinfd-39" value="rerturn Error Code&amp;nbsp;001&lt;span style=&quot;font-size: medium; text-align: start;&quot;&gt;&lt;/span&gt;" style="rounded=1;whiteSpace=wrap;html=1;" vertex="1" parent="Eos4zvJPWw53F5UFinfd-1">
          <mxGeometry x="110" y="308" width="77.5" height="40" as="geometry" />
        </mxCell>
        <mxCell id="Eos4zvJPWw53F5UFinfd-40" value="" style="edgeStyle=orthogonalEdgeStyle;rounded=0;orthogonalLoop=1;jettySize=auto;html=1;" edge="1" parent="Eos4zvJPWw53F5UFinfd-1" source="Eos4zvJPWw53F5UFinfd-37" target="Eos4zvJPWw53F5UFinfd-39">
          <mxGeometry relative="1" as="geometry" />
        </mxCell>
        <mxCell id="Eos4zvJPWw53F5UFinfd-41" value="" style="edgeStyle=orthogonalEdgeStyle;rounded=0;orthogonalLoop=1;jettySize=auto;html=1;" edge="1" parent="Eos4zvJPWw53F5UFinfd-1" source="Eos4zvJPWw53F5UFinfd-42" target="Eos4zvJPWw53F5UFinfd-33">
          <mxGeometry relative="1" as="geometry" />
        </mxCell>
        <mxCell id="Eos4zvJPWw53F5UFinfd-42" value="บันทึกข้อมูล&lt;span style=&quot;font-size: medium; text-align: start;&quot;&gt;&lt;/span&gt;" style="rounded=1;whiteSpace=wrap;html=1;" vertex="1" parent="Eos4zvJPWw53F5UFinfd-1">
          <mxGeometry x="207.5" y="420" width="77.5" height="40" as="geometry" />
        </mxCell>
        <mxCell id="Eos4zvJPWw53F5UFinfd-43" value="" style="edgeStyle=orthogonalEdgeStyle;rounded=0;orthogonalLoop=1;jettySize=auto;html=1;" edge="1" parent="Eos4zvJPWw53F5UFinfd-1" source="Eos4zvJPWw53F5UFinfd-34" target="Eos4zvJPWw53F5UFinfd-42">
          <mxGeometry relative="1" as="geometry" />
        </mxCell>
        <mxCell id="Eos4zvJPWw53F5UFinfd-44" value="สร้างข้อมูล ActivityLog&lt;span style=&quot;font-size: medium; text-align: start;&quot;&gt;&lt;/span&gt;" style="rounded=1;whiteSpace=wrap;html=1;" vertex="1" parent="Eos4zvJPWw53F5UFinfd-1">
          <mxGeometry x="207.5" y="488" width="77.5" height="40" as="geometry" />
        </mxCell>
        <mxCell id="Eos4zvJPWw53F5UFinfd-45" value="" style="edgeStyle=orthogonalEdgeStyle;rounded=0;orthogonalLoop=1;jettySize=auto;html=1;" edge="1" parent="Eos4zvJPWw53F5UFinfd-1" source="Eos4zvJPWw53F5UFinfd-24" target="Eos4zvJPWw53F5UFinfd-44">
          <mxGeometry relative="1" as="geometry" />
        </mxCell>
        <mxCell id="Eos4zvJPWw53F5UFinfd-46" value="ใช่" style="edgeLabel;html=1;align=center;verticalAlign=middle;resizable=0;points=[];" vertex="1" connectable="0" parent="Eos4zvJPWw53F5UFinfd-45">
          <mxGeometry x="-0.1659" y="-1" relative="1" as="geometry">
            <mxPoint as="offset" />
          </mxGeometry>
        </mxCell>
        <mxCell id="Eos4zvJPWw53F5UFinfd-47" value="" style="edgeStyle=orthogonalEdgeStyle;rounded=0;orthogonalLoop=1;jettySize=auto;html=1;" edge="1" parent="Eos4zvJPWw53F5UFinfd-1" source="Eos4zvJPWw53F5UFinfd-48" target="Eos4zvJPWw53F5UFinfd-30">
          <mxGeometry relative="1" as="geometry" />
        </mxCell>
        <mxCell id="Eos4zvJPWw53F5UFinfd-48" value="บันทึกข้อมูล&lt;span style=&quot;font-size: medium; text-align: start;&quot;&gt;&lt;/span&gt;" style="rounded=1;whiteSpace=wrap;html=1;" vertex="1" parent="Eos4zvJPWw53F5UFinfd-1">
          <mxGeometry x="207.5" y="545" width="77.5" height="40" as="geometry" />
        </mxCell>
        <mxCell id="Eos4zvJPWw53F5UFinfd-49" value="" style="edgeStyle=orthogonalEdgeStyle;rounded=0;orthogonalLoop=1;jettySize=auto;html=1;" edge="1" parent="Eos4zvJPWw53F5UFinfd-1" source="Eos4zvJPWw53F5UFinfd-44" target="Eos4zvJPWw53F5UFinfd-48">
          <mxGeometry relative="1" as="geometry" />
        </mxCell>
        <mxCell id="Eos4zvJPWw53F5UFinfd-50" value="มี ?" style="rhombus;whiteSpace=wrap;html=1;" vertex="1" parent="Eos4zvJPWw53F5UFinfd-1">
          <mxGeometry x="530" y="545" width="60" height="60" as="geometry" />
        </mxCell>
        <mxCell id="Eos4zvJPWw53F5UFinfd-51" value="rerturn Error Code 30&lt;span style=&quot;font-size: medium; text-align: start;&quot;&gt;&lt;/span&gt;" style="rounded=1;whiteSpace=wrap;html=1;" vertex="1" parent="Eos4zvJPWw53F5UFinfd-1">
          <mxGeometry x="400" y="590" width="77.5" height="40" as="geometry" />
        </mxCell>
        <mxCell id="Eos4zvJPWw53F5UFinfd-52" value="" style="edgeStyle=orthogonalEdgeStyle;rounded=0;orthogonalLoop=1;jettySize=auto;html=1;" edge="1" parent="Eos4zvJPWw53F5UFinfd-1" source="Eos4zvJPWw53F5UFinfd-50" target="Eos4zvJPWw53F5UFinfd-51">
          <mxGeometry relative="1" as="geometry" />
        </mxCell>
        <mxCell id="Eos4zvJPWw53F5UFinfd-53" value="ไม่" style="edgeLabel;html=1;align=center;verticalAlign=middle;resizable=0;points=[];" vertex="1" connectable="0" parent="Eos4zvJPWw53F5UFinfd-52">
          <mxGeometry x="-0.1637" relative="1" as="geometry">
            <mxPoint as="offset" />
          </mxGeometry>
        </mxCell>
        <mxCell id="Eos4zvJPWw53F5UFinfd-54" value="ตรวจสอบว่า auditCompanyCode &lt;br&gt;มีในฐานข้อมูลไหม" style="rounded=1;whiteSpace=wrap;html=1;" vertex="1" parent="Eos4zvJPWw53F5UFinfd-1">
          <mxGeometry x="423.0999999999999" y="477" width="123.65" height="62" as="geometry" />
        </mxCell>
        <mxCell id="Eos4zvJPWw53F5UFinfd-55" value="" style="edgeStyle=orthogonalEdgeStyle;rounded=0;orthogonalLoop=1;jettySize=auto;html=1;" edge="1" parent="Eos4zvJPWw53F5UFinfd-1" source="Eos4zvJPWw53F5UFinfd-24" target="Eos4zvJPWw53F5UFinfd-54">
          <mxGeometry relative="1" as="geometry" />
        </mxCell>
        <mxCell id="Eos4zvJPWw53F5UFinfd-56" value="ไม่" style="edgeLabel;html=1;align=center;verticalAlign=middle;resizable=0;points=[];" vertex="1" connectable="0" parent="Eos4zvJPWw53F5UFinfd-55">
          <mxGeometry x="0.1426" y="-1" relative="1" as="geometry">
            <mxPoint as="offset" />
          </mxGeometry>
        </mxCell>
        <mxCell id="Eos4zvJPWw53F5UFinfd-57" value="" style="edgeStyle=orthogonalEdgeStyle;rounded=0;orthogonalLoop=1;jettySize=auto;html=1;" edge="1" parent="Eos4zvJPWw53F5UFinfd-1" source="Eos4zvJPWw53F5UFinfd-54" target="Eos4zvJPWw53F5UFinfd-50">
          <mxGeometry relative="1" as="geometry">
            <Array as="points">
              <mxPoint x="560" y="510" />
            </Array>
          </mxGeometry>
        </mxCell>
        <mxCell id="Eos4zvJPWw53F5UFinfd-58" value="ตรวจสอบสถานะ status ที่แก้ไขเป็น 0 หรือ 1 ไหม&lt;span style=&quot;font-size: medium; text-align: start;&quot;&gt;&lt;/span&gt;" style="rounded=1;whiteSpace=wrap;html=1;" vertex="1" parent="Eos4zvJPWw53F5UFinfd-1">
          <mxGeometry x="630" y="550" width="127.5" height="50" as="geometry" />
        </mxCell>
        <mxCell id="Eos4zvJPWw53F5UFinfd-59" value="" style="edgeStyle=orthogonalEdgeStyle;rounded=0;orthogonalLoop=1;jettySize=auto;html=1;" edge="1" parent="Eos4zvJPWw53F5UFinfd-1" source="Eos4zvJPWw53F5UFinfd-50" target="Eos4zvJPWw53F5UFinfd-58">
          <mxGeometry relative="1" as="geometry" />
        </mxCell>
        <mxCell id="Eos4zvJPWw53F5UFinfd-60" value="ใช่" style="edgeLabel;html=1;align=center;verticalAlign=middle;resizable=0;points=[];" vertex="1" connectable="0" parent="Eos4zvJPWw53F5UFinfd-59">
          <mxGeometry x="-0.3183" y="-1" relative="1" as="geometry">
            <mxPoint as="offset" />
          </mxGeometry>
        </mxCell>
        <mxCell id="Eos4zvJPWw53F5UFinfd-61" value="สร้างข้อมูล ActivityLog&lt;span style=&quot;font-size: medium; text-align: start;&quot;&gt;&lt;/span&gt;" style="rounded=1;whiteSpace=wrap;html=1;" vertex="1" parent="Eos4zvJPWw53F5UFinfd-1">
          <mxGeometry x="680" y="705" width="77.5" height="40" as="geometry" />
        </mxCell>
        <mxCell id="Eos4zvJPWw53F5UFinfd-62" value="" style="edgeStyle=orthogonalEdgeStyle;rounded=0;orthogonalLoop=1;jettySize=auto;html=1;" edge="1" parent="Eos4zvJPWw53F5UFinfd-1" source="Eos4zvJPWw53F5UFinfd-58" target="Eos4zvJPWw53F5UFinfd-69">
          <mxGeometry relative="1" as="geometry" />
        </mxCell>
        <mxCell id="Eos4zvJPWw53F5UFinfd-63" value="บันทึกข้อมูล&lt;span style=&quot;font-size: medium; text-align: start;&quot;&gt;&lt;/span&gt;" style="rounded=1;whiteSpace=wrap;html=1;" vertex="1" parent="Eos4zvJPWw53F5UFinfd-1">
          <mxGeometry x="680" y="791" width="77.5" height="40" as="geometry" />
        </mxCell>
        <mxCell id="Eos4zvJPWw53F5UFinfd-64" value="" style="edgeStyle=orthogonalEdgeStyle;rounded=0;orthogonalLoop=1;jettySize=auto;html=1;" edge="1" parent="Eos4zvJPWw53F5UFinfd-1" source="Eos4zvJPWw53F5UFinfd-61" target="Eos4zvJPWw53F5UFinfd-63">
          <mxGeometry relative="1" as="geometry" />
        </mxCell>
        <mxCell id="Eos4zvJPWw53F5UFinfd-65" value="" style="edgeStyle=orthogonalEdgeStyle;rounded=0;orthogonalLoop=1;jettySize=auto;html=1;" edge="1" parent="Eos4zvJPWw53F5UFinfd-1" source="Eos4zvJPWw53F5UFinfd-69" target="Eos4zvJPWw53F5UFinfd-74">
          <mxGeometry relative="1" as="geometry" />
        </mxCell>
        <mxCell id="Eos4zvJPWw53F5UFinfd-66" value="ใช่" style="edgeLabel;html=1;align=center;verticalAlign=middle;resizable=0;points=[];" vertex="1" connectable="0" parent="Eos4zvJPWw53F5UFinfd-65">
          <mxGeometry x="-0.2248" y="1" relative="1" as="geometry">
            <mxPoint as="offset" />
          </mxGeometry>
        </mxCell>
        <mxCell id="Eos4zvJPWw53F5UFinfd-67" style="edgeStyle=orthogonalEdgeStyle;rounded=0;orthogonalLoop=1;jettySize=auto;html=1;entryX=0.546;entryY=0.05;entryDx=0;entryDy=0;entryPerimeter=0;" edge="1" parent="Eos4zvJPWw53F5UFinfd-1" source="Eos4zvJPWw53F5UFinfd-69" target="Eos4zvJPWw53F5UFinfd-61">
          <mxGeometry relative="1" as="geometry">
            <Array as="points">
              <mxPoint x="722" y="675" />
              <mxPoint x="722" y="697" />
              <mxPoint x="722" y="697" />
            </Array>
          </mxGeometry>
        </mxCell>
        <mxCell id="Eos4zvJPWw53F5UFinfd-68" value="ไม่" style="edgeLabel;html=1;align=center;verticalAlign=middle;resizable=0;points=[];" vertex="1" connectable="0" parent="Eos4zvJPWw53F5UFinfd-67">
          <mxGeometry x="-0.4774" y="2" relative="1" as="geometry">
            <mxPoint as="offset" />
          </mxGeometry>
        </mxCell>
        <mxCell id="Eos4zvJPWw53F5UFinfd-69" value="ใช่?" style="rhombus;whiteSpace=wrap;html=1;" vertex="1" parent="Eos4zvJPWw53F5UFinfd-1">
          <mxGeometry x="619.9999999999998" y="645" width="60" height="60" as="geometry" />
        </mxCell>
        <mxCell id="Eos4zvJPWw53F5UFinfd-70" style="edgeStyle=orthogonalEdgeStyle;rounded=0;orthogonalLoop=1;jettySize=auto;html=1;" edge="1" parent="Eos4zvJPWw53F5UFinfd-1" source="Eos4zvJPWw53F5UFinfd-77" target="Eos4zvJPWw53F5UFinfd-17">
          <mxGeometry relative="1" as="geometry">
            <Array as="points">
              <mxPoint x="410" y="811" />
              <mxPoint x="410" y="710" />
            </Array>
          </mxGeometry>
        </mxCell>
        <mxCell id="Eos4zvJPWw53F5UFinfd-71" style="edgeStyle=orthogonalEdgeStyle;rounded=0;orthogonalLoop=1;jettySize=auto;html=1;" edge="1" parent="Eos4zvJPWw53F5UFinfd-1" source="Eos4zvJPWw53F5UFinfd-72">
          <mxGeometry relative="1" as="geometry">
            <mxPoint x="360" y="730" as="targetPoint" />
          </mxGeometry>
        </mxCell>
        <mxCell id="Eos4zvJPWw53F5UFinfd-72" value="rerturn Error Code&amp;nbsp;019&lt;span style=&quot;font-size: medium; text-align: start;&quot;&gt;&lt;/span&gt;" style="rounded=1;whiteSpace=wrap;html=1;" vertex="1" parent="Eos4zvJPWw53F5UFinfd-1">
          <mxGeometry x="580" y="860" width="77.5" height="40" as="geometry" />
        </mxCell>
        <mxCell id="Eos4zvJPWw53F5UFinfd-73" style="edgeStyle=orthogonalEdgeStyle;rounded=0;orthogonalLoop=1;jettySize=auto;html=1;entryX=1;entryY=0.5;entryDx=0;entryDy=0;exitX=0.5;exitY=1;exitDx=0;exitDy=0;" edge="1" parent="Eos4zvJPWw53F5UFinfd-1" source="Eos4zvJPWw53F5UFinfd-63" target="Eos4zvJPWw53F5UFinfd-72">
          <mxGeometry relative="1" as="geometry" />
        </mxCell>
        <mxCell id="Eos4zvJPWw53F5UFinfd-74" value="แก้ไขข้อมูลบริษัทผู้ตรวจสอบบัญชี&lt;span style=&quot;font-size: medium; text-align: start;&quot;&gt;&lt;/span&gt;" style="rounded=1;whiteSpace=wrap;html=1;" vertex="1" parent="Eos4zvJPWw53F5UFinfd-1">
          <mxGeometry x="465" y="650" width="87.5" height="50" as="geometry" />
        </mxCell>
        <mxCell id="Eos4zvJPWw53F5UFinfd-75" value="สร้างข้อมูล ActivityLog&lt;span style=&quot;font-size: medium; text-align: start;&quot;&gt;&lt;/span&gt;" style="rounded=1;whiteSpace=wrap;html=1;" vertex="1" parent="Eos4zvJPWw53F5UFinfd-1">
          <mxGeometry x="470" y="721" width="77.5" height="40" as="geometry" />
        </mxCell>
        <mxCell id="Eos4zvJPWw53F5UFinfd-76" value="" style="edgeStyle=orthogonalEdgeStyle;rounded=0;orthogonalLoop=1;jettySize=auto;html=1;" edge="1" parent="Eos4zvJPWw53F5UFinfd-1" source="Eos4zvJPWw53F5UFinfd-74" target="Eos4zvJPWw53F5UFinfd-75">
          <mxGeometry relative="1" as="geometry" />
        </mxCell>
        <mxCell id="Eos4zvJPWw53F5UFinfd-77" value="บันทึกข้อมูล&lt;span style=&quot;font-size: medium; text-align: start;&quot;&gt;&lt;/span&gt;" style="rounded=1;whiteSpace=wrap;html=1;" vertex="1" parent="Eos4zvJPWw53F5UFinfd-1">
          <mxGeometry x="470" y="791" width="77.5" height="40" as="geometry" />
        </mxCell>
        <mxCell id="Eos4zvJPWw53F5UFinfd-78" value="" style="edgeStyle=orthogonalEdgeStyle;rounded=0;orthogonalLoop=1;jettySize=auto;html=1;" edge="1" parent="Eos4zvJPWw53F5UFinfd-1" source="Eos4zvJPWw53F5UFinfd-75" target="Eos4zvJPWw53F5UFinfd-77">
          <mxGeometry relative="1" as="geometry" />
        </mxCell>
      </root>
    </mxGraphModel>
  </diagram>
</mxfile>
